<svg xmlns="http://www.w3.org/2000/svg" width="426" height="568" viewBox="0 0 426 568">
  <g id="Macintosh" transform="translate(-303.22 -5080.457)">
    <path id="Rectangle_74" data-name="Rectangle 74" d="M0,0H394a0,0,0,0,1,0,0V70a5,5,0,0,1-5,5H5a5,5,0,0,1-5-5V0A0,0,0,0,1,0,0Z" transform="translate(319.22 5573.457)" fill="#494944"/>
    <path id="Rectangle_69" data-name="Rectangle 69" d="M0,0H394a0,0,0,0,1,0,0V70a5,5,0,0,1-5,5H5a5,5,0,0,1-5-5V0A0,0,0,0,1,0,0Z" transform="translate(319.22 5564.457)" fill="#726f58"/>
    <rect id="Rectangle_68" data-name="Rectangle 68" width="426" height="499" rx="10" transform="translate(303.22 5080.457)" fill="#b9ab8c"/>
    <rect id="Rectangle_70" data-name="Rectangle 70" width="408" height="475" rx="10" transform="translate(312.22 5089.457)" fill="#c9bb97"/>
    <rect id="Rectangle_77" data-name="Rectangle 77" width="366" height="289" rx="10" transform="translate(333.22 5116.457)" fill="#b9ab8c"/>
    <path id="Path_39" data-name="Path 39" d="M2569.562,8922.795c14.509,10.355,335.3,13.137,347.786,0s9.616-247.617,0-255.5-337.2-10.91-347.786,0S2555.053,8912.441,2569.562,8922.795Z" transform="translate(-2226.277 -3534.577)" fill="#494944"/>
    <g id="floppy_drive" data-name="floppy drive">
      <rect id="Rectangle_72" data-name="Rectangle 72" width="56" height="37" rx="3" transform="translate(628.22 5450.457)" fill="#a0916f"/>
      <rect id="Rectangle_73" data-name="Rectangle 73" width="96" height="16" transform="translate(532.22 5458.457)" fill="#b9ab8c"/>
      <rect id="Rectangle_71" data-name="Rectangle 71" width="143" height="12" transform="translate(535.22 5462.457)" fill="#494944"/>
    </g>
    <g id="logo">
      <rect id="Rectangle_76" data-name="Rectangle 76" width="23" height="23" transform="translate(342.22 5504.457)" fill="#a0916f"/>
      <rect id="Rectangle_75" data-name="Rectangle 75" width="23" height="23" transform="translate(340.22 5506.457)" fill="#efe6c8"/>
      <rect id="Rectangle_14" data-name="Rectangle 14" width="17" height="3" transform="translate(343.22 5510.457)" fill="#06b462"/>
      <rect id="Rectangle_15" data-name="Rectangle 15" width="17" height="3" transform="translate(343.22 5516.457)" fill="#f5502a"/>
      <rect id="Rectangle_16" data-name="Rectangle 16" width="17" height="3" transform="translate(343.22 5522.457)" fill="#6f3edb"/>
    </g>
  </g>
</svg>
