<svg width="460" height="429" viewBox="0 0 460 429" fill="none" xmlns="http://www.w3.org/2000/svg">
<path d="M1.77271 355C2.66268 379.366 3.86135 402.971 5.30794 418.279C5.86639 424.188 10.8888 428.5 16.8246 428.5H442.175C448.111 428.5 453.134 424.188 453.692 418.279C455.139 402.971 456.337 379.366 457.227 355H1.77271Z" fill="url(#paint0_linear_164_142)"/>
<path d="M1.77271 355C2.66268 379.366 3.86135 402.971 5.30794 418.279C5.86639 424.188 10.8888 428.5 16.8246 428.5H442.175C448.111 428.5 453.134 424.188 453.692 418.279C455.139 402.971 456.337 379.366 457.227 355H1.77271Z" fill="url(#paint1_linear_164_142)"/>
<rect x="19" y="367" width="112" height="52" rx="16" fill="#1F2937"/>
<rect x="329" y="367" width="112" height="52" rx="16" fill="#1F2937"/>
<path fill-rule="evenodd" clip-rule="evenodd" d="M229.5 4.60204e-10C141.777 -6.45009e-05 73.4176 6.78027 26.7371 16.7898C19.3657 18.3704 13.9692 24.5512 13.2066 32.0515C8.30811 80.2261 0 182.352 0 273.5C0 291.369 0.633419 323.808 1.77274 355H457.227C458.367 323.808 459 291.369 459 273.5C459 182.352 450.692 80.2261 445.794 32.0515C445.031 24.5512 439.634 18.3704 432.263 16.7898C385.582 6.78027 317.223 -6.45009e-05 229.5 4.60204e-10ZM42.4045 48C39.6878 48 37.4682 50.1692 37.4058 52.8852L31.6175 304.885C31.553 307.691 33.8098 310 36.6162 310H421.395C424.197 310 426.452 307.697 426.393 304.896L421.131 52.8956C421.075 50.1755 418.853 48 416.132 48H42.4045Z" fill="url(#paint2_linear_164_142)"/>
<path fill-rule="evenodd" clip-rule="evenodd" d="M231.5 5.68292e-10C144.35 -6.45003e-05 75.8754 5.49048 29.5 15.5C17.806 18.024 17.354 23.4261 16.8028 30.0129C16.7469 30.6808 16.69 31.3609 16.6203 32.0515C11.7538 80.2261 3.5 182.352 3.5 273.5C3.5 291.369 4.12928 323.808 5.26116 355H457.739C458.871 323.808 459.5 291.369 459.5 273.5C459.5 182.352 451.246 80.2261 446.38 32.0515C445.622 24.5512 440.261 18.3704 432.938 16.7898C386.562 6.78027 318.65 -6.45003e-05 231.5 5.68292e-10ZM42.4045 48C39.6878 48 37.4682 50.1692 37.4058 52.8852L31.6175 304.885C31.553 307.691 33.8098 310 36.6162 310H421.395C424.197 310 426.452 307.697 426.393 304.896L421.131 52.8956C421.075 50.1755 418.853 48 416.132 48H42.4045Z" fill="#334155"/>
<path fill-rule="evenodd" clip-rule="evenodd" d="M231.5 5.68292e-10C144.35 -6.45003e-05 75.8754 5.49048 29.5 15.5C17.806 18.024 17.354 23.4261 16.8028 30.0129C16.7469 30.6808 16.69 31.3609 16.6203 32.0515C11.7538 80.2261 3.5 182.352 3.5 273.5C3.5 291.369 4.12928 323.808 5.26116 355H457.739C458.871 323.808 459.5 291.369 459.5 273.5C459.5 182.352 451.246 80.2261 446.38 32.0515C445.622 24.5512 440.261 18.3704 432.938 16.7898C386.562 6.78027 318.65 -6.45003e-05 231.5 5.68292e-10ZM42.4045 48C39.6878 48 37.4682 50.1692 37.4058 52.8852L31.6175 304.885C31.553 307.691 33.8098 310 36.6162 310H421.395C424.197 310 426.452 307.697 426.393 304.896L421.131 52.8956C421.075 50.1755 418.853 48 416.132 48H42.4045Z" fill="url(#paint3_linear_164_142)" fill-opacity="0.5"/>
<path fill-rule="evenodd" clip-rule="evenodd" d="M231.5 5.68292e-10C144.35 -6.45003e-05 75.8754 5.49048 29.5 15.5C17.806 18.024 17.354 23.4261 16.8028 30.0129C16.7469 30.6808 16.69 31.3609 16.6203 32.0515C11.7538 80.2261 3.5 182.352 3.5 273.5C3.5 291.369 4.12928 323.808 5.26116 355H457.739C458.871 323.808 459.5 291.369 459.5 273.5C459.5 182.352 451.246 80.2261 446.38 32.0515C445.622 24.5512 440.261 18.3704 432.938 16.7898C386.562 6.78027 318.65 -6.45003e-05 231.5 5.68292e-10ZM42.4045 48C39.6878 48 37.4682 50.1692 37.4058 52.8852L31.6175 304.885C31.553 307.691 33.8098 310 36.6162 310H421.395C424.197 310 426.452 307.697 426.393 304.896L421.131 52.8956C421.075 50.1755 418.853 48 416.132 48H42.4045Z" fill="url(#paint4_linear_164_142)" fill-opacity="0.5"/>
<path fill-rule="evenodd" clip-rule="evenodd" d="M231.5 5.68292e-10C144.35 -6.45003e-05 75.8754 5.49048 29.5 15.5C17.806 18.024 17.354 23.4261 16.8028 30.0129C16.7469 30.6808 16.69 31.3609 16.6203 32.0515C11.7538 80.2261 3.5 182.352 3.5 273.5C3.5 291.369 4.12928 323.808 5.26116 355H457.739C458.871 323.808 459.5 291.369 459.5 273.5C459.5 182.352 451.246 80.2261 446.38 32.0515C445.622 24.5512 440.261 18.3704 432.938 16.7898C386.562 6.78027 318.65 -6.45003e-05 231.5 5.68292e-10ZM42.4045 48C39.6878 48 37.4682 50.1692 37.4058 52.8852L31.6175 304.885C31.553 307.691 33.8098 310 36.6162 310H421.395C424.197 310 426.452 307.697 426.393 304.896L421.131 52.8956C421.075 50.1755 418.853 48 416.132 48H42.4045Z" fill="url(#paint5_linear_164_142)" fill-opacity="0.5"/>
<path fill-rule="evenodd" clip-rule="evenodd" d="M231.5 5.68292e-10C144.35 -6.45003e-05 75.8754 5.49048 29.5 15.5C17.806 18.024 17.354 23.4261 16.8028 30.0129C16.7469 30.6808 16.69 31.3609 16.6203 32.0515C11.7538 80.2261 3.5 182.352 3.5 273.5C3.5 291.369 4.12928 323.808 5.26116 355H457.739C458.871 323.808 459.5 291.369 459.5 273.5C459.5 182.352 451.246 80.2261 446.38 32.0515C445.622 24.5512 440.261 18.3704 432.938 16.7898C386.562 6.78027 318.65 -6.45003e-05 231.5 5.68292e-10ZM42.4045 48C39.6878 48 37.4682 50.1692 37.4058 52.8852L31.6175 304.885C31.553 307.691 33.8098 310 36.6162 310H421.395C424.197 310 426.452 307.697 426.393 304.896L421.131 52.8956C421.075 50.1755 418.853 48 416.132 48H42.4045Z" fill="url(#paint6_linear_164_142)" fill-opacity="0.5"/>
<path fill-rule="evenodd" clip-rule="evenodd" d="M231.5 5.68292e-10C144.35 -6.45003e-05 75.8754 5.49048 29.5 15.5C17.806 18.024 17.354 23.4261 16.8028 30.0129C16.7469 30.6808 16.69 31.3609 16.6203 32.0515C11.7538 80.2261 3.5 182.352 3.5 273.5C3.5 291.369 4.12928 323.808 5.26116 355H457.739C458.871 323.808 459.5 291.369 459.5 273.5C459.5 182.352 451.246 80.2261 446.38 32.0515C445.622 24.5512 440.261 18.3704 432.938 16.7898C386.562 6.78027 318.65 -6.45003e-05 231.5 5.68292e-10ZM42.4045 48C39.6878 48 37.4682 50.1692 37.4058 52.8852L31.6175 304.885C31.553 307.691 33.8098 310 36.6162 310H421.395C424.197 310 426.452 307.697 426.393 304.896L421.131 52.8956C421.075 50.1755 418.853 48 416.132 48H42.4045Z" fill="url(#paint7_linear_164_142)" fill-opacity="0.7"/>
<path fill-rule="evenodd" clip-rule="evenodd" d="M231.5 5.68292e-10C144.35 -6.45003e-05 75.8754 5.49048 29.5 15.5C17.806 18.024 17.354 23.4261 16.8028 30.0129C16.7469 30.6808 16.69 31.3609 16.6203 32.0515C11.7538 80.2261 3.5 182.352 3.5 273.5C3.5 291.369 4.12928 323.808 5.26116 355H457.739C458.871 323.808 459.5 291.369 459.5 273.5C459.5 182.352 451.246 80.2261 446.38 32.0515C445.622 24.5512 440.261 18.3704 432.938 16.7898C386.562 6.78027 318.65 -6.45003e-05 231.5 5.68292e-10ZM42.4045 48C39.6878 48 37.4682 50.1692 37.4058 52.8852L31.6175 304.885C31.553 307.691 33.8098 310 36.6162 310H421.395C424.197 310 426.452 307.697 426.393 304.896L421.131 52.8956C421.075 50.1755 418.853 48 416.132 48H42.4045Z" fill="url(#paint8_linear_164_142)" fill-opacity="0.5"/>
<path fill-rule="evenodd" clip-rule="evenodd" d="M41.4763 42C36.042 42 31.6023 46.34 31.4789 51.7729L25.7324 304.773C25.6049 310.383 30.118 315 35.7298 315H422.291C427.895 315 432.405 310.396 432.289 304.794L427.065 51.7936C426.953 46.3523 422.51 42 417.067 42H41.4763ZM42.4046 48C39.6879 48 37.4683 50.1692 37.4059 52.8852L31.6176 304.885C31.5531 307.691 33.8099 310 36.6162 310H421.395C424.197 310 426.452 307.697 426.393 304.896L421.131 52.8956C421.075 50.1755 418.853 48 416.132 48H42.4046Z" fill="url(#paint9_linear_164_142)"/>
<path fill-rule="evenodd" clip-rule="evenodd" d="M41.4763 42C36.042 42 31.6023 46.34 31.4789 51.7729L25.7324 304.773C25.6049 310.383 30.118 315 35.7298 315H422.291C427.895 315 432.405 310.396 432.289 304.794L427.065 51.7936C426.953 46.3523 422.51 42 417.067 42H41.4763ZM42.4046 48C39.6879 48 37.4683 50.1692 37.4059 52.8852L31.6176 304.885C31.5531 307.691 33.8099 310 36.6162 310H421.395C424.197 310 426.452 307.697 426.393 304.896L421.131 52.8956C421.075 50.1755 418.853 48 416.132 48H42.4046Z" fill="url(#paint10_linear_164_142)"/>
<path fill-rule="evenodd" clip-rule="evenodd" d="M41.4763 42C36.042 42 31.6023 46.34 31.4789 51.7729L25.7324 304.773C25.6049 310.383 30.118 315 35.7298 315H422.291C427.895 315 432.405 310.396 432.289 304.794L427.065 51.7936C426.953 46.3523 422.51 42 417.067 42H41.4763ZM42.4046 48C39.6879 48 37.4683 50.1692 37.4059 52.8852L31.6176 304.885C31.5531 307.691 33.8099 310 36.6162 310H421.395C424.197 310 426.452 307.697 426.393 304.896L421.131 52.8956C421.075 50.1755 418.853 48 416.132 48H42.4046Z" fill="url(#paint11_linear_164_142)"/>
<path d="M210.572 341.066C210.455 341.066 210.352 341.044 210.264 341C210.191 340.956 210.154 340.89 210.154 340.802C210.154 340.685 210.198 340.604 210.286 340.56C210.389 340.501 210.499 340.457 210.616 340.428C210.954 340.34 211.203 340.245 211.364 340.142C211.526 340.039 211.606 339.856 211.606 339.592V334.84C211.606 334.4 211.533 334.048 211.386 333.784C211.24 333.505 210.983 333.337 210.616 333.278C210.543 333.263 210.484 333.234 210.44 333.19C210.411 333.131 210.396 333.051 210.396 332.948C210.396 332.772 210.462 332.677 210.594 332.662C211.24 332.515 211.79 332.325 212.244 332.09C212.714 331.841 213.066 331.643 213.3 331.496C213.462 331.393 213.579 331.342 213.652 331.342C213.77 331.342 213.828 331.401 213.828 331.518C213.828 331.679 213.806 331.936 213.762 332.288C213.733 332.64 213.696 333.021 213.652 333.432C213.623 333.843 213.608 334.224 213.608 334.576V339.592C213.608 339.827 213.689 340.003 213.85 340.12C214.012 340.237 214.261 340.34 214.598 340.428C214.716 340.457 214.818 340.501 214.906 340.56C215.009 340.604 215.06 340.685 215.06 340.802C215.06 340.978 214.928 341.066 214.664 341.066C214.386 341.066 214.136 341.051 213.916 341.022C213.696 341.007 213.484 340.993 213.278 340.978C213.088 340.963 212.86 340.956 212.596 340.956C212.347 340.956 212.12 340.963 211.914 340.978C211.709 340.993 211.504 341.007 211.298 341.022C211.108 341.051 210.866 341.066 210.572 341.066ZM212.552 329.824C212.186 329.824 211.87 329.699 211.606 329.45C211.357 329.186 211.232 328.871 211.232 328.504C211.232 328.123 211.357 327.807 211.606 327.558C211.87 327.294 212.186 327.162 212.552 327.162C212.934 327.162 213.256 327.294 213.52 327.558C213.784 327.807 213.916 328.123 213.916 328.504C213.916 328.871 213.784 329.186 213.52 329.45C213.256 329.699 212.934 329.824 212.552 329.824ZM216.396 341.11C216.22 341.11 216.08 341.088 215.978 341.044C215.875 341 215.824 340.934 215.824 340.846C215.824 340.655 216.036 340.516 216.462 340.428C217.004 340.311 217.408 340.149 217.672 339.944C217.936 339.724 218.068 339.357 218.068 338.844V328.9C218.068 328.401 217.965 328.035 217.76 327.8C217.554 327.565 217.18 327.411 216.638 327.338C216.418 327.309 216.256 327.257 216.154 327.184C216.051 327.096 216 327.001 216 326.898C216 326.81 216.051 326.744 216.154 326.7C216.256 326.641 216.396 326.612 216.572 326.612C216.997 326.612 217.334 326.619 217.584 326.634C217.833 326.649 218.068 326.663 218.288 326.678C218.522 326.678 218.794 326.678 219.102 326.678C219.41 326.678 219.674 326.671 219.894 326.656C220.128 326.627 220.385 326.605 220.664 326.59C220.957 326.561 221.331 326.546 221.786 326.546C223.516 326.546 224.814 326.795 225.68 327.294C226.545 327.778 226.978 328.621 226.978 329.824C226.978 330.308 226.882 330.741 226.692 331.122C226.516 331.503 226.318 331.797 226.098 332.002C225.863 332.222 225.636 332.398 225.416 332.53C225.21 332.662 224.932 332.787 224.58 332.904C224.521 332.919 224.492 332.955 224.492 333.014C224.492 333.058 224.521 333.095 224.58 333.124C224.932 333.227 225.291 333.359 225.658 333.52C226.039 333.667 226.398 333.872 226.736 334.136C227.073 334.385 227.337 334.723 227.528 335.148C227.733 335.559 227.836 336.087 227.836 336.732C227.836 337.539 227.704 338.184 227.44 338.668C227.19 339.137 226.89 339.497 226.538 339.746C226.186 339.995 225.856 340.201 225.548 340.362C225.078 340.597 224.543 340.78 223.942 340.912C223.34 341.029 222.614 341.088 221.764 341.088C221.47 341.088 221.111 341.073 220.686 341.044C220.275 341.015 219.828 341 219.344 341C218.992 341 218.662 341.007 218.354 341.022C218.06 341.037 217.76 341.051 217.452 341.066C217.144 341.095 216.792 341.11 216.396 341.11ZM221.962 340.076C222.548 340.076 223.084 339.937 223.568 339.658C224.066 339.379 224.462 338.998 224.756 338.514C225.064 338.015 225.218 337.465 225.218 336.864C225.218 336.307 225.13 335.852 224.954 335.5C224.792 335.133 224.602 334.84 224.382 334.62C224.162 334.4 223.964 334.239 223.788 334.136C223.612 334.019 223.34 333.901 222.974 333.784C222.607 333.667 222.13 333.608 221.544 333.608C221.162 333.608 220.869 333.689 220.664 333.85C220.473 334.011 220.378 334.187 220.378 334.378V338.58C220.378 339.137 220.517 339.526 220.796 339.746C221.074 339.966 221.463 340.076 221.962 340.076ZM221.346 332.86C221.727 332.86 222.116 332.816 222.512 332.728C222.922 332.64 223.326 332.471 223.722 332.222C223.868 332.134 224.052 331.929 224.272 331.606C224.492 331.269 224.602 330.792 224.602 330.176C224.602 329.677 224.521 329.215 224.36 328.79C224.213 328.35 223.927 327.998 223.502 327.734C223.091 327.455 222.497 327.316 221.72 327.316C221.192 327.316 220.832 327.397 220.642 327.558C220.466 327.719 220.378 327.961 220.378 328.284V332.046C220.378 332.398 220.495 332.625 220.73 332.728C220.964 332.816 221.17 332.86 221.346 332.86ZM233.305 341.33C232.513 341.33 231.809 341.132 231.193 340.736C230.591 340.325 230.115 339.761 229.763 339.042C229.411 338.309 229.235 337.465 229.235 336.512C229.235 335.647 229.433 334.855 229.829 334.136C230.239 333.417 230.782 332.845 231.457 332.42C232.131 331.98 232.872 331.76 233.679 331.76C234.28 331.76 234.815 331.885 235.285 332.134C235.769 332.369 236.143 332.706 236.407 333.146C236.685 333.571 236.825 334.063 236.825 334.62C236.825 335.104 236.597 335.346 236.143 335.346H231.589C231.383 335.346 231.237 335.405 231.149 335.522C231.061 335.639 231.017 335.852 231.017 336.16C231.017 336.805 231.163 337.399 231.457 337.942C231.75 338.47 232.139 338.895 232.623 339.218C233.107 339.541 233.642 339.702 234.229 339.702C234.669 339.702 235.065 339.621 235.417 339.46C235.783 339.284 236.121 339.042 236.429 338.734C236.473 338.675 236.509 338.631 236.539 338.602C236.583 338.573 236.627 338.558 236.671 338.558C236.803 338.558 236.869 338.639 236.869 338.8C236.869 339.035 236.766 339.313 236.561 339.636C236.355 339.944 236.091 340.23 235.769 340.494C235.461 340.743 235.094 340.941 234.669 341.088C234.258 341.249 233.803 341.33 233.305 341.33ZM231.611 334.598H233.371C233.752 334.598 234.053 334.591 234.273 334.576C234.493 334.561 234.698 334.532 234.889 334.488C234.962 334.459 235.013 334.4 235.043 334.312C235.072 334.209 235.087 334.085 235.087 333.938C235.087 333.527 234.918 333.183 234.581 332.904C234.243 332.611 233.84 332.464 233.371 332.464C233.048 332.464 232.725 332.559 232.403 332.75C232.095 332.941 231.838 333.183 231.633 333.476C231.427 333.755 231.332 334.041 231.347 334.334C231.347 334.51 231.435 334.598 231.611 334.598ZM238.395 341.066C238.278 341.066 238.175 341.044 238.087 341C237.999 340.956 237.955 340.89 237.955 340.802C237.955 340.685 237.999 340.604 238.087 340.56C238.19 340.501 238.315 340.45 238.461 340.406C238.681 340.347 238.887 340.267 239.077 340.164C239.268 340.061 239.363 339.863 239.363 339.57V334.73C239.363 334.363 239.319 334.055 239.231 333.806C239.158 333.542 238.945 333.366 238.593 333.278C238.535 333.263 238.483 333.234 238.439 333.19C238.395 333.131 238.373 333.058 238.373 332.97C238.373 332.779 238.439 332.677 238.571 332.662C239.085 332.53 239.547 332.369 239.957 332.178C240.383 331.987 240.771 331.775 241.123 331.54C241.167 331.511 241.211 331.481 241.255 331.452C241.314 331.423 241.365 331.408 241.409 331.408C241.468 331.408 241.505 331.43 241.519 331.474C241.549 331.503 241.563 331.547 241.563 331.606C241.563 331.709 241.541 331.907 241.497 332.2C241.468 332.493 241.453 332.743 241.453 332.948C241.453 333.007 241.453 333.065 241.453 333.124C241.468 333.183 241.483 333.219 241.497 333.234C242.011 332.75 242.539 332.383 243.081 332.134C243.639 331.885 244.262 331.76 244.951 331.76C245.685 331.76 246.293 332.046 246.777 332.618C247.261 333.19 247.503 333.931 247.503 334.84V339.592C247.503 339.885 247.599 340.076 247.789 340.164C247.995 340.252 248.207 340.333 248.427 340.406C248.545 340.45 248.655 340.501 248.757 340.56C248.86 340.619 248.911 340.707 248.911 340.824C248.911 340.927 248.86 340.993 248.757 341.022C248.669 341.051 248.581 341.066 248.493 341.066C248.2 341.066 247.951 341.051 247.745 341.022C247.555 341.007 247.364 340.993 247.173 340.978C246.997 340.963 246.777 340.956 246.513 340.956C246.264 340.956 246.044 340.963 245.853 340.978C245.663 340.993 245.465 341.007 245.259 341.022C245.069 341.051 244.827 341.066 244.533 341.066C244.46 341.066 244.372 341.051 244.269 341.022C244.167 340.993 244.115 340.927 244.115 340.824C244.115 340.707 244.167 340.619 244.269 340.56C244.372 340.501 244.482 340.45 244.599 340.406C244.819 340.333 245.025 340.252 245.215 340.164C245.406 340.076 245.501 339.885 245.501 339.592V335.038C245.501 334.422 245.333 333.945 244.995 333.608C244.673 333.271 244.247 333.095 243.719 333.08C243.265 333.08 242.861 333.153 242.509 333.3C242.172 333.432 241.857 333.615 241.563 333.85C241.505 333.909 241.461 333.982 241.431 334.07C241.402 334.158 241.387 334.239 241.387 334.312V339.592C241.387 339.885 241.483 340.083 241.673 340.186C241.864 340.274 242.062 340.347 242.267 340.406C242.59 340.509 242.751 340.641 242.751 340.802C242.751 340.89 242.715 340.956 242.641 341C242.568 341.044 242.465 341.066 242.333 341.066C242.04 341.066 241.791 341.051 241.585 341.022C241.395 341.007 241.211 340.993 241.035 340.978C240.874 340.963 240.661 340.956 240.397 340.956C240.148 340.956 239.928 340.963 239.737 340.978C239.547 340.993 239.349 341.007 239.143 341.022C238.938 341.051 238.689 341.066 238.395 341.066Z" fill="#E2E8F0"/>
<defs>
<linearGradient id="paint0_linear_164_142" x1="174" y1="392.5" x2="439.5" y2="384" gradientUnits="userSpaceOnUse">
<stop stop-color="#334155"/>
<stop offset="1" stop-color="#303946"/>
</linearGradient>
<linearGradient id="paint1_linear_164_142" x1="233" y1="338.5" x2="229.5" y2="380.5" gradientUnits="userSpaceOnUse">
<stop stop-color="#1E242C"/>
<stop offset="1" stop-color="#1E242C" stop-opacity="0"/>
</linearGradient>
<linearGradient id="paint2_linear_164_142" x1="204.5" y1="15.5" x2="188" y2="337" gradientUnits="userSpaceOnUse">
<stop stop-color="#2BCCEB"/>
<stop offset="1" stop-color="#3D69DA"/>
</linearGradient>
<linearGradient id="paint3_linear_164_142" x1="456.52" y1="181.5" x2="421.251" y2="181.007" gradientUnits="userSpaceOnUse">
<stop stop-color="#1C2128"/>
<stop offset="1" stop-color="#334155" stop-opacity="0"/>
</linearGradient>
<linearGradient id="paint4_linear_164_142" x1="455.526" y1="170.5" x2="435.159" y2="171.981" gradientUnits="userSpaceOnUse">
<stop stop-color="#1C2128"/>
<stop offset="1" stop-color="#334155" stop-opacity="0"/>
</linearGradient>
<linearGradient id="paint5_linear_164_142" x1="459.997" y1="292" x2="434.663" y2="292" gradientUnits="userSpaceOnUse">
<stop stop-color="#1C2128"/>
<stop offset="1" stop-color="#334155" stop-opacity="0"/>
</linearGradient>
<linearGradient id="paint6_linear_164_142" x1="443.108" y1="42" x2="417.273" y2="44.9614" gradientUnits="userSpaceOnUse">
<stop stop-color="#1C2128"/>
<stop offset="1" stop-color="#334155" stop-opacity="0"/>
</linearGradient>
<linearGradient id="paint7_linear_164_142" x1="421.748" y1="16.5" x2="417.22" y2="44.9908" gradientUnits="userSpaceOnUse">
<stop stop-color="#1C2128"/>
<stop offset="1" stop-color="#334155" stop-opacity="0"/>
</linearGradient>
<linearGradient id="paint8_linear_164_142" x1="38.2712" y1="139.5" x2="268.191" y2="232.943" gradientUnits="userSpaceOnUse">
<stop stop-color="#617DA5"/>
<stop offset="1" stop-color="#222932"/>
</linearGradient>
<linearGradient id="paint9_linear_164_142" x1="360.5" y1="300" x2="353" y2="250" gradientUnits="userSpaceOnUse">
<stop stop-color="#4D5A6E"/>
<stop offset="1" stop-color="#64748B" stop-opacity="0"/>
</linearGradient>
<linearGradient id="paint10_linear_164_142" x1="432.5" y1="239.5" x2="332" y2="222" gradientUnits="userSpaceOnUse">
<stop stop-color="#4D5A6E"/>
<stop offset="1" stop-color="#64748B" stop-opacity="0"/>
</linearGradient>
<linearGradient id="paint11_linear_164_142" x1="33" y1="53" x2="447" y2="323" gradientUnits="userSpaceOnUse">
<stop stop-color="#3C526F"/>
<stop offset="1" stop-color="#4E5C70" stop-opacity="0"/>
</linearGradient>
</defs>
</svg>
