<svg xmlns="http://www.w3.org/2000/svg" width="70.036" height="57.024" viewBox="0 0 70.036 57.024">
  <g id="crystal_ball" data-name="crystal ball" transform="translate(-0.54 -4.143)">
    <g id="_Group_" data-name="&lt;Group&gt;" transform="translate(12.28 8.648)">
      <g id="_Group_2" data-name="&lt;Group&gt;" transform="translate(0 0)">
        <circle id="_Ellipse_" data-name="&lt;Ellipse&gt;" cx="21.97" cy="21.97" r="21.97" fill="#f9f2db" stroke="#b29a7b" stroke-width="3"/>
        <circle id="_Ellipse_2" data-name="&lt;Ellipse&gt;" cx="21.97" cy="21.97" r="21.97" fill="none"/>
      </g>
      <circle id="_Ellipse_3" data-name="&lt;Ellipse&gt;" cx="5.36" cy="5.36" r="5.36" transform="translate(25.189 9.11)" fill="#d9c7ab"/>
      <circle id="_Ellipse_4" data-name="&lt;Ellipse&gt;" cx="2.673" cy="2.673" r="2.673" transform="translate(18.766 5.906)" fill="#d9c7ab"/>
    </g>
    <g id="_Group_3" data-name="&lt;Group&gt;" transform="translate(16.088 47.229)">
      <path id="_Path_" data-name="&lt;Path&gt;" d="M47.455,41.79a2.141,2.141,0,0,1-.79,2.788c-2.543,1.581-8.133,4.21-17.142,4.21s-14.6-2.63-17.142-4.21a2.141,2.141,0,0,1-.79-2.788l3.463-6.94a35.836,35.836,0,0,0,14.47,3.219,35.836,35.836,0,0,0,14.47-3.219Z" transform="translate(-11.36 -34.85)" fill="#b29a7b"/>
      <path id="_Path_2" data-name="&lt;Path&gt;" d="M29.024,41.977a50.062,50.062,0,0,0,16.524-3L43.494,34.85a35.837,35.837,0,0,1-14.47,3.219,35.836,35.836,0,0,1-14.47-3.219L12.5,38.974a50.062,50.062,0,0,0,16.524,3Z" transform="translate(-10.862 -34.85)" fill="#d9c7ab"/>
      <path id="_Path_3" data-name="&lt;Path&gt;" d="M47.455,41.79a2.141,2.141,0,0,1-.79,2.788c-2.543,1.581-8.133,4.21-17.142,4.21s-14.6-2.63-17.142-4.21a2.141,2.141,0,0,1-.79-2.788l3.463-6.94a35.836,35.836,0,0,0,14.47,3.219,35.836,35.836,0,0,0,14.47-3.219Z" transform="translate(-11.36 -34.85)" fill="#b29a7b"/>
    </g>
    <path id="_Path_4" data-name="&lt;Path&gt;" d="M18.433,23.558a3.836,3.836,0,0,1,2.845-2.824l5.754-1.307a.464.464,0,0,0,.358-.464.443.443,0,0,0-.358-.443l-5.67-1.328a3.773,3.773,0,0,1-2.845-2.824L17.127,8.7a.464.464,0,0,0-.464-.358.443.443,0,0,0-.443.358l-1.307,5.67a3.773,3.773,0,0,1-2.845,2.824L6.4,18.52a.443.443,0,0,0-.358.443.464.464,0,0,0,.358.464l5.67,1.307a3.836,3.836,0,0,1,2.845,2.824l1.307,5.691a.443.443,0,0,0,.443.358.464.464,0,0,0,.464-.358Z" transform="translate(0.339 -1.254)" fill="#b29a7b"/>
    <path id="_Path_5" data-name="&lt;Path&gt;" d="M49.54,34.691l4.383-1.454a.436.436,0,0,0,.291-.395.415.415,0,0,0-.291-.395l-3.594-1.2A1.62,1.62,0,0,1,49.291,30.2l-1.2-3.594a.415.415,0,0,0-.395-.27.374.374,0,0,0-.374.27l-1.2,3.594a1.62,1.62,0,0,1-1.039,1.039l-3.594,1.2a.415.415,0,0,0-.291.395.436.436,0,0,0,.291.395l3.594,1.184a1.662,1.662,0,0,1,1.039,1.039l1.2,3.614a.374.374,0,0,0,.374.27.415.415,0,0,0,.395-.27Z" transform="translate(16.362 4.278)" fill="#b29a7b"/>
    <path id="_Path_6" data-name="&lt;Path&gt;" d="M6.331,36.565l3.018-1.006a.287.287,0,0,0,.2-.273.273.273,0,0,0-.2-.259l-2.486-.833a1.193,1.193,0,0,1-.718-.718l-.833-2.414a.273.273,0,0,0-.259-.2.287.287,0,0,0-.273.2l-.833,2.486a1.15,1.15,0,0,1-.718.718L.741,35.1a.273.273,0,0,0-.2.259.287.287,0,0,0,.2.273l2.486.833a1.121,1.121,0,0,1,.718.718l.833,2.486a.287.287,0,0,0,.273.2.273.273,0,0,0,.259-.2Z" transform="translate(0 10.636)" fill="#b29a7b"/>
    <path id="_Path_7" data-name="&lt;Path&gt;" d="M6.331,36.565l3.018-1.006a.287.287,0,0,0,.2-.273.273.273,0,0,0-.2-.259l-2.486-.833a1.193,1.193,0,0,1-.718-.718l-.833-2.414a.273.273,0,0,0-.259-.2.287.287,0,0,0-.273.2l-.833,2.486a1.15,1.15,0,0,1-.718.718L.741,35.1a.273.273,0,0,0-.2.259.287.287,0,0,0,.2.273l2.486.833a1.121,1.121,0,0,1,.718.718l.833,2.486a.287.287,0,0,0,.273.2.273.273,0,0,0,.259-.2Z" transform="translate(48.003 -26.717)" fill="#b29a7b"/>
  </g>
</svg>
