<svg xmlns="http://www.w3.org/2000/svg" width="32" height="32" viewBox="0 0 32 32" fill="none">
    <path d="M14.0001 21.38L9.87211 17.2533C9.49709 16.8781 8.98839 16.6673 8.45792 16.6672C7.92744 16.667 7.41864 16.8777 7.04344 17.2527C6.66825 17.6277 6.4574 18.1364 6.45728 18.6669C6.45715 19.1973 6.66776 19.7061 7.04278 20.0813L14.5854 27.624C14.7712 27.8099 14.9917 27.9573 15.2344 28.0579C15.4772 28.1585 15.7374 28.2102 16.0001 28.2102C16.2629 28.2102 16.523 28.1585 16.7658 28.0579C17.0085 27.9573 17.229 27.8099 17.4148 27.624L24.9574 20.0827C25.1432 19.8969 25.2906 19.6763 25.3911 19.4336C25.4917 19.1909 25.5434 18.9307 25.5434 18.668C25.5434 18.4053 25.4917 18.1451 25.3911 17.9024C25.2906 17.6597 25.1432 17.4391 24.9574 17.2533C24.7717 17.0676 24.5511 16.9202 24.3084 16.8196C24.0657 16.7191 23.8055 16.6674 23.5428 16.6674C23.2801 16.6674 23.0199 16.7191 22.7772 16.8196C22.5344 16.9202 22.3139 17.0676 22.1281 17.2533L18.0001 21.38V6C18.0001 5.46957 17.7894 4.96086 17.4143 4.58579C17.0393 4.21071 16.5305 4 16.0001 4C15.4697 4 14.961 4.21071 14.5859 4.58579C14.2108 4.96086 14.0001 5.46957 14.0001 6V21.38Z" fill="currentColor"></path>
</svg>