<svg width="26" height="28" viewBox="0 0 26 28" fill="none" xmlns="http://www.w3.org/2000/svg">
<path d="M7.36523 1.07998C8.36699 1.41802 9.31968 1.88697 10.1986 2.47465C11.4406 2.15674 12.7178 1.99726 13.9999 1.99998C15.3239 1.99998 16.6012 2.16531 17.7986 2.47331C18.6771 1.88621 19.6293 1.41771 20.6306 1.07998C21.5599 0.763981 22.8839 0.251981 23.6706 1.12265C24.2039 1.71465 24.3372 2.70665 24.4319 3.46398C24.5386 4.30931 24.5639 5.41065 24.2839 6.50398C25.3546 7.88665 25.9999 9.53598 25.9999 11.3333C25.9999 14.056 24.5252 16.42 22.3426 18.0573C21.2916 18.8346 20.1267 19.4444 18.8892 19.8653C19.1746 20.5186 19.3332 21.2413 19.3332 22V26C19.3332 26.3536 19.1928 26.6927 18.9427 26.9428C18.6927 27.1928 18.3535 27.3333 17.9999 27.3333H9.9999C9.64628 27.3333 9.30714 27.1928 9.05709 26.9428C8.80704 26.6927 8.66657 26.3536 8.66657 26V24.6786C7.39323 24.8346 6.32523 24.696 5.41723 24.3106C4.4679 23.908 3.80657 23.284 3.30923 22.6866C2.83723 22.1213 2.32257 20.8466 1.57857 20.5986C1.4124 20.5433 1.25876 20.4558 1.12642 20.3411C0.994072 20.2264 0.885618 20.0867 0.807245 19.9301C0.648965 19.6138 0.622821 19.2476 0.734566 18.912C0.84631 18.5764 1.08679 18.2989 1.4031 18.1407C1.71941 17.9824 2.08564 17.9562 2.42123 18.068C3.30923 18.364 3.8879 19.004 4.2839 19.5186C4.9239 20.3453 5.4439 21.4253 6.45723 21.856C6.87457 22.0333 7.48657 22.1493 8.4439 22.0186L8.66657 21.9733C8.66964 21.2478 8.82072 20.5305 9.11057 19.8653C7.87306 19.4444 6.70816 18.8346 5.65723 18.0573C3.47457 16.42 1.9999 14.0573 1.9999 11.3333C1.9999 9.53865 2.6439 7.89065 3.7119 6.50931C3.4319 5.41598 3.4559 4.31198 3.56257 3.46531L3.56923 3.41465C3.66657 2.63865 3.7799 1.72531 4.3239 1.12265C5.11057 0.251981 6.4359 0.765314 7.3639 1.08131L7.36523 1.07998Z" fill="currentColor"/>
</svg>
