<svg xmlns="http://www.w3.org/2000/svg" width="32" height="32" viewBox="0 0 24 24">
  <g fill="none">
    <path d="M24 0v24H0V0zM12.593 23.258l-.011.002l-.071.035l-.02.004l-.014-.004l-.071-.035c-.01-.004-.019-.001-.024.005l-.004.01l-.017.428l.005.02l.01.013l.104.074l.015.004l.012-.004l.104-.074l.012-.016l.004-.017l-.017-.427c-.002-.01-.009-.017-.017-.018m.265-.113l-.013.002l-.185.093l-.01.01l-.003.011l.018.43l.005.012l.008.007l.201.093c.012.004.023 0 .029-.008l.004-.014l-.034-.614c-.003-.012-.01-.02-.02-.022m-.715.002a.023.023 0 0 0-.027.006l-.006.014l-.034.614c0 .012.007.02.017.024l.015-.002l.201-.093l.01-.008l.004-.011l.017-.43l-.003-.012l-.01-.01z"/>
    <path fill="currentColor" d="M18.494 3.801c2.095 1.221 3.569 3.7 3.504 6.592C21.86 16.5 13.5 21 12 21s-9.861-4.5-9.998-10.607c-.065-2.892 1.409-5.37 3.504-6.592C7.466 2.66 9.928 2.653 12 4.338c2.072-1.685 4.534-1.679 6.494-.537"/>
  </g>
</svg>