<svg width="24" height="26" viewBox="0 0 24 26" fill="none" xmlns="http://www.w3.org/2000/svg">
<path fill-rule="evenodd" clip-rule="evenodd" d="M1.2 0.229187C0.88174 0.229187 0.576516 0.351664 0.351472 0.569675C0.126428 0.787686 0 1.08337 0 1.39169V19.7256C0 20.0339 0.126428 20.3296 0.351472 20.5476C0.576516 20.7656 0.88174 20.8881 1.2 20.8881H6.688V24.8019C6.68851 24.9803 6.74353 25.1546 6.84612 25.3029C6.94871 25.4511 7.09429 25.5666 7.26451 25.6348C7.43474 25.7031 7.622 25.721 7.8027 25.6863C7.98341 25.6516 8.14948 25.5659 8.28 25.4399L12.98 20.8881H19.1707C19.4888 20.8878 19.7938 20.7652 20.0187 20.5471L23.648 17.0312C23.8731 16.8134 23.9997 16.5179 24 16.2097V1.39169C24 1.08337 23.8736 0.787686 23.6485 0.569675C23.4235 0.351664 23.1183 0.229187 22.8 0.229187H1.2ZM10.9587 6.94585C10.9587 6.68892 10.8533 6.44252 10.6658 6.26084C10.4782 6.07917 10.2239 5.9771 9.95867 5.9771C9.69345 5.9771 9.4391 6.07917 9.25156 6.26084C9.06402 6.44252 8.95867 6.68892 8.95867 6.94585V12.4639C8.95867 12.7208 9.06402 12.9672 9.25156 13.1489C9.4391 13.3305 9.69345 13.4326 9.95867 13.4326C10.2239 13.4326 10.4782 13.3305 10.6658 13.1489C10.8533 12.9672 10.9587 12.7208 10.9587 12.4639V6.94585ZM17.6467 6.94585C17.6467 6.68892 17.5413 6.44252 17.3538 6.26084C17.1662 6.07917 16.9119 5.9771 16.6467 5.9771C16.3815 5.9771 16.1271 6.07917 15.9396 6.26084C15.752 6.44252 15.6467 6.68892 15.6467 6.94585V12.4639C15.6467 12.7208 15.752 12.9672 15.9396 13.1489C16.1271 13.3305 16.3815 13.4326 16.6467 13.4326C16.9119 13.4326 17.1662 13.3305 17.3538 13.1489C17.5413 12.9672 17.6467 12.7208 17.6467 12.4639V6.94585Z" fill="currentColor"/>
</svg>
