<svg width="32" height="32" viewBox="0 0 32 32" fill="none" xmlns="http://www.w3.org/2000/svg">
<path fill-rule="evenodd" clip-rule="evenodd" d="M26.3373 6.212C26.4526 6.08015 26.5408 5.92689 26.5969 5.76095C26.653 5.59502 26.6758 5.41966 26.6641 5.2449C26.6524 5.07014 26.6064 4.8994 26.5287 4.74242C26.451 4.58544 26.3432 4.4453 26.2113 4.33C26.0795 4.2147 25.9262 4.1265 25.7603 4.07043C25.5944 4.01436 25.419 3.99152 25.2442 4.00323C25.0695 4.01493 24.8987 4.06093 24.7418 4.13862C24.5848 4.21631 24.4446 4.32415 24.3293 4.456L17.516 12.2427L11.7333 4.53333C11.6091 4.36774 11.4481 4.23333 11.263 4.14076C11.0778 4.04819 10.8737 4 10.6667 4H5.33333C5.08572 4 4.84299 4.06895 4.63236 4.19913C4.42172 4.32931 4.2515 4.51557 4.14076 4.73705C4.03003 4.95852 3.98315 5.20646 4.00539 5.45307C4.02763 5.69969 4.1181 5.93524 4.26667 6.13333L12.8493 17.576L5.66267 25.7893C5.54737 25.9212 5.45916 26.0744 5.4031 26.2404C5.34703 26.4063 5.32419 26.5817 5.33589 26.7564C5.34759 26.9312 5.3936 27.1019 5.47129 27.2589C5.54897 27.4159 5.65682 27.556 5.78867 27.6713C5.92051 27.7866 6.07378 27.8748 6.23972 27.9309C6.40565 27.987 6.581 28.0098 6.75576 27.9981C6.93052 27.9864 7.10127 27.9404 7.25825 27.8627C7.41523 27.785 7.55537 27.6772 7.67067 27.5453L14.484 19.7573L20.2667 27.4667C20.3909 27.6323 20.5519 27.7667 20.737 27.8592C20.9222 27.9518 21.1263 28 21.3333 28H26.6667C26.9143 28 27.157 27.931 27.3676 27.8009C27.5783 27.6707 27.7485 27.4844 27.8592 27.263C27.97 27.0415 28.0169 26.7935 27.9946 26.5469C27.9724 26.3003 27.8819 26.0648 27.7333 25.8667L19.1507 14.424L26.3373 6.212ZM22 25.3333L8 6.66667H10L24 25.3333H22Z" fill="currentColor"/>
<defs>
</defs>
</svg>
