<svg xmlns="http://www.w3.org/2000/svg" width="50" height="50" viewBox="0 0 50 50">
  <g id="coffee-cup-large" transform="translate(-110 -107)">
    <rect id="Rectangle_56" data-name="Rectangle 56" width="50" height="50" transform="translate(110 107)" fill="none"/>
    <path id="Path_19" data-name="Path 19" d="M18.551,23.664c-.306,0-.584.008-.861,0-.186-.008-.261.042-.274.239q-.263,4.06-.546,8.118c-.008.12-.024.239-.036.359H3.512c-.047-.646-.1-1.281-.14-1.915q-.224-3.253-.439-6.506c-.014-.231-.085-.316-.32-.3-.256.019-.513,0-.795,0C1.211,15.766.607,7.9,0,0H20.336l.025.169A17.743,17.743,0,0,1,22.33.685a7.291,7.291,0,0,1,3.537,3.138,12.464,12.464,0,0,1,1.8,7.229,11.949,11.949,0,0,1-2.105,6.686,6.7,6.7,0,0,1-4.4,2.949c-.292.05-.59.057-.9.086V18.3c2.154-.219,3.255-1.689,4.048-3.464a10.767,10.767,0,0,0,.638-6.646,8.279,8.279,0,0,0-2.035-4.16A3.876,3.876,0,0,0,20.734,2.8c-.108-.018-.217-.026-.327-.035h-.263C19.619,9.727,19.09,16.672,18.551,23.664Z" transform="translate(123.767 115.084)" fill="#5f4b32"/>
  </g>
</svg>
