<svg xmlns="http://www.w3.org/2000/svg" width="57.228" height="32.41" viewBox="0 0 57.228 32.41">
  <path id="coffee-cup-med" d="M36.315,27.451H57.228c-.3.189-.427.286-.566.357q-4.248,2.19-8.5,4.364a2.116,2.116,0,0,1-.926.228q-18.653.021-37.3,0a1.867,1.867,0,0,1-.816-.163Q4.741,30.01.385,27.747A4,4,0,0,1,0,27.485H20.958C17.913,18.281,14.9,9.178,11.864,0h33.3c-.359,1.07-.7,2.1-1.083,3.218.611-.338,1.083-.635,1.587-.873a4.065,4.065,0,0,1,4.345.128A4.209,4.209,0,0,1,51.674,6.76a9.307,9.307,0,0,1-.821,2.531,17.323,17.323,0,0,1-6.231,7A8.1,8.1,0,0,1,39.9,17.6c-.336,0-.545.05-.666.435-.949,3.047-1.933,6.089-2.9,9.11a1.555,1.555,0,0,0-.018.3Zm4.2-12.207a8.357,8.357,0,0,0,1.723-.443A14.3,14.3,0,0,0,48.3,8.95a5.7,5.7,0,0,0,.9-2.7c.018-1.573-1.017-2.481-2.229-1.765-2.135,1.256-3.97,2.8-4.678,5.344C41.8,11.622,41.134,13.374,40.51,15.244Z" fill="#5f4b32"/>
</svg>
