<svg xmlns="http://www.w3.org/2000/svg" width="50" height="50" viewBox="0 0 50 50">
  <g id="coffee-cup-med" transform="translate(-51 -107)">
    <rect id="Rectangle_55" data-name="Rectangle 55" width="50" height="50" transform="translate(51 107)" fill="none"/>
    <path id="Path_15" data-name="Path 15" d="M28.1,21.244H44.288c-.231.146-.331.221-.438.276q-3.288,1.695-6.579,3.377a1.638,1.638,0,0,1-.716.177q-14.435.016-28.869,0a1.445,1.445,0,0,1-.631-.126Q3.669,23.225.3,21.473a3.093,3.093,0,0,1-.3-.2H16.219C13.863,14.147,11.531,7.1,9.181,0H34.955c-.278.828-.544,1.624-.838,2.49.473-.262.838-.491,1.228-.676a3.146,3.146,0,0,1,3.363.1A3.257,3.257,0,0,1,39.99,5.232a7.2,7.2,0,0,1-.635,1.958,13.406,13.406,0,0,1-4.822,5.417,6.271,6.271,0,0,1-3.653,1.015c-.26,0-.422.039-.515.337-.735,2.358-1.5,4.712-2.247,7.05a1.2,1.2,0,0,0-.014.235ZM31.351,11.8a6.467,6.467,0,0,0,1.333-.343,11.065,11.065,0,0,0,4.7-4.528,4.411,4.411,0,0,0,.7-2.09c.014-1.218-.787-1.92-1.725-1.366a7.04,7.04,0,0,0-3.621,4.136C32.345,8.994,31.834,10.35,31.351,11.8Z" transform="translate(53.971 120.254)" fill="#5f4b32"/>
  </g>
</svg>
