<svg xmlns="http://www.w3.org/2000/svg" width="38.794" height="45.395" viewBox="0 0 38.794 45.395">
  <path id="coffee-cup-large" d="M26.007,33.175c-.43,0-.819.012-1.206,0-.26-.012-.366.059-.384.336q-.369,5.691-.765,11.381c-.012.168-.034.336-.05.5H4.923c-.065-.906-.136-1.8-.2-2.685q-.314-4.56-.616-9.121c-.02-.324-.119-.443-.448-.418-.359.027-.72,0-1.114,0C1.7,22.1.851,11.074,0,0H28.509l.035.237A24.874,24.874,0,0,1,31.3.96a10.221,10.221,0,0,1,4.958,4.4,17.474,17.474,0,0,1,2.517,10.134,16.752,16.752,0,0,1-2.951,9.373A9.4,9.4,0,0,1,29.663,29c-.409.07-.827.081-1.268.121V25.653c3.02-.307,4.564-2.367,5.675-4.856a15.1,15.1,0,0,0,.894-9.317,11.607,11.607,0,0,0-2.852-5.832,5.434,5.434,0,0,0-3.044-1.727c-.151-.025-.3-.037-.458-.049H28.24C27.5,13.636,26.762,23.373,26.007,33.175Z" fill="#5f4b32"/>
</svg>
