<svg xmlns="http://www.w3.org/2000/svg" width="53.077" height="30.884" viewBox="0 0 53.077 30.884">
  <path id="coffee-cup-small" d="M45.918.141c.232.128.456.352.692.365,4.6.252,7.426,4.144,6.165,8.776-1.13,4.161-3.937,6.852-7.844,8.506a11.147,11.147,0,0,1-4.353.841,1.03,1.03,0,0,0-.7.375,23.513,23.513,0,0,1-7.932,6.656c-.947.478-1.943.853-2.915,1.349.453-.063.911-.108,1.362-.189a49.4,49.4,0,0,0,11.349-3.394,1.732,1.732,0,1,1,1.4,3.157,48.73,48.73,0,0,1-12.174,3.658A49.976,49.976,0,0,1,3.162,26.7c-.992-.413-1.427-1.007-1.387-1.82a1.763,1.763,0,0,1,2.517-1.49c2.266.826,4.519,1.664,6.82,2.349,1.641.488,3.353.738,5.035,1.088.194.038.4.035.755.068-1.093-.5-2.042-.871-2.938-1.344A25.1,25.1,0,0,1,2.89,13.433,32.039,32.039,0,0,1,0,.836C0,.569,0,.3,0,0H45.918ZM42.5,14.908l.1.252a18.472,18.472,0,0,0,2.4-.8,7.378,7.378,0,0,0,4.393-5.156,4,4,0,0,0-3.545-5.035A32.263,32.263,0,0,1,42.5,14.908Z" fill="#5f4b32"/>
</svg>
