<svg xmlns="http://www.w3.org/2000/svg" width="50" height="50" viewBox="0 0 50 50">
  <g id="coffee-cup-small" transform="translate(-172 -107)">
    <rect id="Rectangle_57" data-name="Rectangle 57" width="50" height="50" transform="translate(172 107)" fill="none"/>
    <path id="Path_14" data-name="Path 14" d="M28.376.087c.143.079.282.218.428.226a4.085,4.085,0,0,1,3.81,5.423,7.806,7.806,0,0,1-4.848,5.257,6.889,6.889,0,0,1-2.69.52.636.636,0,0,0-.432.232,14.53,14.53,0,0,1-4.9,4.113c-.585.3-1.2.527-1.8.834.28-.039.563-.067.842-.117a30.525,30.525,0,0,0,7.013-2.1,1.071,1.071,0,1,1,.863,1.951,30.114,30.114,0,0,1-7.523,2.26A30.884,30.884,0,0,1,1.954,16.5c-.613-.255-.882-.622-.857-1.125a1.09,1.09,0,0,1,1.556-.921c1.4.51,2.793,1.028,4.214,1.451,1.014.3,2.072.456,3.111.672.12.023.244.022.467.042-.675-.311-1.262-.538-1.816-.831A15.51,15.51,0,0,1,1.786,8.3,19.8,19.8,0,0,1,0,.517C0,.352,0,.187,0,0H28.376ZM26.262,9.213l.061.156a11.416,11.416,0,0,0,1.483-.492A4.56,4.56,0,0,0,30.52,5.691a2.474,2.474,0,0,0-2.19-3.111,19.938,19.938,0,0,1-2.068,6.634Z" transform="translate(181.946 124.1)" fill="#5f4b32"/>
  </g>
</svg>
