<svg width="460" height="660" viewBox="0 0 460 660" fill="none" xmlns="http://www.w3.org/2000/svg">
<g filter="url(#filter0_dddd_222_3)">
<rect x="80.5112" y="32.0181" width="356.747" height="530.61" rx="30" transform="rotate(5.20552 80.5112 32.0181)" fill="#334155"/>
<rect x="89.3909" y="41.6232" width="337.318" height="513.09" rx="20" transform="rotate(5.20552 89.3909 41.6232)" fill="url(#paint0_linear_222_3)"/>
<rect x="89.3909" y="41.6232" width="337.318" height="513.09" rx="20" transform="rotate(5.20552 89.3909 41.6232)" fill="url(#paint1_radial_222_3)" fill-opacity="0.2"/>
<path d="M177.694 327.134C186.618 339.221 202.718 349.178 228.996 351.572C255.273 353.966 272.907 347.082 283.868 336.807" stroke="#6200FF" stroke-width="25" stroke-linecap="round"/>
<rect x="121.205" y="203.51" width="20.5027" height="109.895" rx="10.2514" transform="rotate(5.20552 121.205 203.51)" fill="#6200FF"/>
<rect x="336.821" y="223.153" width="20.5027" height="109.895" rx="10.2514" transform="rotate(5.20552 336.821 223.153)" fill="#6200FF"/>
</g>
<g opacity="0.3">
<path d="M62.1801 583.241L62.9242 575.074L53.1464 574.183C52.3954 574.115 51.8418 574.87 52.1336 575.566L54.8504 582.04C54.9935 582.381 55.3133 582.615 55.6818 582.649L62.1801 583.241Z" fill="#FC0D0D"/>
<path fill-rule="evenodd" clip-rule="evenodd" d="M148.937 583.333C149.187 580.583 147.161 578.151 144.411 577.9L78.4831 571.894C76.16 571.682 74.0635 573.096 73.3175 575.197L63.9943 574.348C63.4443 574.298 62.9578 574.703 62.9077 575.253L62.1962 583.062C62.1461 583.612 62.5514 584.098 63.1014 584.149L72.4611 585.001C72.8669 587.139 74.6462 588.838 76.9205 589.045L142.848 595.052C145.598 595.302 148.031 593.276 148.281 590.526L148.937 583.333Z" fill="url(#paint2_linear_222_3)"/>
<path d="M94.6791 584.828C94.3737 584.8 94.11 584.682 93.8879 584.475C93.6658 584.267 93.4866 583.993 93.3503 583.652C93.2139 583.312 93.1214 582.932 93.0726 582.513C93.0238 582.093 93.0202 581.654 93.062 581.196C93.0861 580.931 93.1109 580.695 93.1363 580.49C93.169 580.279 93.2037 580.081 93.2406 579.897C93.278 579.706 93.326 579.51 93.3846 579.308C93.4498 579.106 93.5241 578.878 93.6075 578.625C93.6618 578.469 93.7488 578.36 93.8683 578.297C93.9944 578.235 94.1173 578.21 94.2368 578.22C94.3895 578.234 94.5213 578.293 94.6324 578.397C94.744 578.494 94.8234 578.615 94.8704 578.76C94.9247 578.899 94.9316 579.044 94.8912 579.194C94.8392 579.47 94.7939 579.71 94.7552 579.914C94.7166 580.118 94.6815 580.319 94.6501 580.517C94.6259 580.709 94.6014 580.941 94.5766 581.214C94.5433 581.579 94.5279 581.895 94.5303 582.163C94.5393 582.432 94.5594 582.651 94.5908 582.822C94.6288 582.992 94.6807 583.121 94.7464 583.207C94.8122 583.294 94.8849 583.34 94.9646 583.348C95.104 583.36 95.2552 583.354 95.4182 583.329C95.5878 583.304 95.7453 583.265 95.8908 583.211C96.0435 583.151 96.17 583.086 96.2702 583.015C96.371 582.937 96.4247 582.861 96.4314 582.788C96.4423 582.669 96.4016 582.565 96.3092 582.476C96.2241 582.381 96.0911 582.299 95.91 582.229C95.7362 582.153 95.5177 582.089 95.2546 582.039C94.9981 581.988 94.7002 581.951 94.361 581.927C94.1745 581.917 94.0269 581.846 93.9183 581.716C93.8169 581.58 93.7753 581.412 93.7935 581.213C93.8026 581.113 93.8509 581.024 93.9384 580.945C94.0326 580.866 94.1542 580.817 94.3033 580.797C94.4391 580.776 94.6129 580.742 94.8248 580.694C95.0439 580.64 95.2669 580.58 95.4939 580.514C95.7275 580.448 95.9484 580.375 96.1566 580.293C96.3649 580.212 96.5363 580.13 96.6709 580.049C96.8061 579.961 96.8777 579.874 96.8855 579.787C96.8928 579.708 96.8657 579.638 96.8041 579.579C96.7498 579.514 96.6445 579.457 96.4882 579.41C96.3325 579.355 96.1091 579.308 95.8182 579.268C95.5279 579.222 95.1537 579.178 94.6956 579.136C94.4632 579.115 94.2369 579.101 94.0166 579.094C93.7969 579.081 93.6373 579.07 93.5377 579.06C93.3584 579.044 93.2238 578.978 93.1339 578.863C93.044 578.748 93.0066 578.607 93.0217 578.441C93.0526 578.103 93.2026 577.852 93.4719 577.689C93.7411 577.526 94.1811 577.472 94.7919 577.528C95.3363 577.578 95.8379 577.657 96.2966 577.765C96.7552 577.874 97.1509 578.014 97.4834 578.185C97.8226 578.356 98.0809 578.571 98.2583 578.828C98.4357 579.085 98.5083 579.389 98.4763 579.741C98.4575 579.947 98.3745 580.161 98.2272 580.381C98.0865 580.603 97.8432 580.812 97.4973 581.008C97.1515 581.204 96.6604 581.377 96.0242 581.526L95.9981 581.042C96.3928 581.118 96.7181 581.221 96.974 581.352C97.2299 581.482 97.4308 581.628 97.5769 581.788C97.7229 581.949 97.8215 582.115 97.8728 582.287C97.9307 582.46 97.9521 582.629 97.937 582.795C97.9007 583.193 97.7697 583.53 97.5439 583.804C97.3253 584.071 97.0513 584.287 96.7217 584.452C96.3921 584.616 96.0474 584.725 95.6877 584.779C95.334 584.841 94.9978 584.857 94.6791 584.828ZM101.18 585.36C100.749 585.321 100.378 585.233 100.069 585.098C99.7604 584.963 99.5121 584.786 99.3244 584.568C99.1434 584.351 99.0152 584.105 98.9398 583.83C98.8644 583.556 98.8412 583.259 98.8702 582.94C98.9029 582.582 99.002 582.229 99.1674 581.883C99.3401 581.53 99.5662 581.216 99.8457 580.941C100.126 580.658 100.45 580.443 100.818 580.296C101.194 580.143 101.6 580.086 102.039 580.126C102.417 580.161 102.743 580.254 103.017 580.406C103.291 580.558 103.496 580.768 103.633 581.035C103.776 581.302 103.83 581.622 103.796 581.993C103.771 582.272 103.682 582.512 103.53 582.712C103.379 582.906 103.177 583.058 102.926 583.169C102.682 583.281 102.404 583.356 102.092 583.394C101.781 583.426 101.45 583.426 101.098 583.394C100.74 583.362 100.47 583.273 100.289 583.13C100.108 582.979 100.026 582.818 100.042 582.645C100.05 582.552 100.077 582.485 100.121 582.442C100.172 582.393 100.251 582.373 100.357 582.383C100.43 582.39 100.515 582.407 100.613 582.436C100.711 582.465 100.846 582.488 101.019 582.503C101.238 582.523 101.45 582.513 101.654 582.471C101.859 582.429 102.029 582.364 102.164 582.276C102.3 582.182 102.374 582.071 102.385 581.945C102.398 581.799 102.372 581.686 102.305 581.606C102.239 581.527 102.116 581.479 101.937 581.462C101.731 581.444 101.537 581.483 101.354 581.58C101.172 581.671 101.006 581.803 100.856 581.976C100.713 582.144 100.595 582.341 100.501 582.567C100.413 582.793 100.358 583.029 100.336 583.275C100.322 583.427 100.336 583.563 100.379 583.68C100.429 583.799 100.518 583.89 100.645 583.956C100.78 584.021 100.96 584.065 101.186 584.085C101.571 584.12 101.896 584.116 102.161 584.074C102.427 584.024 102.65 583.961 102.831 583.884C103.019 583.807 103.179 583.738 103.312 583.676C103.451 583.615 103.584 583.591 103.71 583.602C103.836 583.614 103.925 583.665 103.977 583.757C104.036 583.843 104.059 583.965 104.044 584.125C104.028 584.297 103.946 584.467 103.797 584.634C103.648 584.801 103.447 584.944 103.196 585.061C102.944 585.179 102.645 585.269 102.297 585.331C101.958 585.387 101.585 585.397 101.18 585.36ZM109.891 586.153C109.612 586.128 109.38 585.996 109.194 585.759C109.015 585.515 108.889 585.168 108.816 584.72C108.751 584.266 108.749 583.7 108.81 583.022C108.825 582.863 108.834 582.73 108.837 582.623C108.84 582.51 108.832 582.415 108.812 582.34C108.792 582.264 108.762 582.198 108.72 582.141C108.679 582.077 108.621 582.018 108.545 581.964C108.718 581.98 108.859 582.009 108.969 582.053C109.079 582.09 109.161 582.154 109.212 582.246C109.265 582.331 109.273 582.465 109.236 582.65C109.136 582.493 109.049 582.385 108.974 582.324C108.9 582.264 108.816 582.23 108.723 582.221C108.597 582.21 108.444 582.269 108.265 582.4C108.092 582.532 107.904 582.726 107.699 582.982C107.495 583.237 107.29 583.547 107.083 583.909C106.882 584.273 106.688 584.677 106.5 585.122C106.389 585.386 106.276 585.563 106.161 585.653C106.045 585.743 105.895 585.779 105.709 585.762C105.384 585.733 105.162 585.562 105.043 585.25C104.924 584.938 104.886 584.549 104.928 584.085C104.958 583.759 104.997 583.478 105.045 583.242C105.1 582.999 105.154 582.776 105.206 582.574C105.265 582.365 105.318 582.152 105.365 581.935C105.418 581.719 105.457 581.475 105.482 581.203C105.503 580.971 105.572 580.803 105.688 580.7C105.811 580.597 105.979 580.555 106.192 580.575C106.411 580.595 106.574 580.68 106.68 580.83C106.794 580.981 106.836 581.213 106.808 581.525C106.79 581.717 106.761 581.889 106.721 582.039C106.68 582.189 106.632 582.349 106.577 582.518C106.528 582.687 106.479 582.894 106.43 583.137C106.381 583.38 106.343 583.691 106.315 584.07L105.986 583.609C106.274 582.939 106.592 582.392 106.938 581.968C107.285 581.538 107.639 581.225 107.998 581.031C108.364 580.83 108.71 580.744 109.035 580.774C109.493 580.815 109.819 580.986 110.013 581.284C110.214 581.577 110.293 581.959 110.25 582.431C110.208 582.895 110.185 583.292 110.182 583.619C110.179 583.94 110.202 584.204 110.25 584.409C110.299 584.614 110.374 584.778 110.477 584.901C110.561 585.003 110.622 585.102 110.66 585.199C110.698 585.296 110.711 585.418 110.698 585.564C110.682 585.737 110.601 585.883 110.457 586.004C110.318 586.125 110.13 586.175 109.891 586.153ZM111.777 586.386C111.631 586.372 111.512 586.321 111.42 586.232C111.334 586.144 111.289 586.016 111.284 585.849C111.286 585.681 111.348 585.476 111.471 585.233C111.594 584.976 111.767 584.694 111.99 584.387C112.212 584.079 112.478 583.765 112.788 583.445C113.099 583.119 113.439 582.808 113.807 582.514C114.183 582.213 114.575 581.948 114.984 581.717C115.139 581.631 115.279 581.563 115.404 581.515C115.536 581.466 115.656 581.434 115.765 581.417C115.88 581.401 115.981 581.396 116.067 581.404C116.253 581.421 116.403 581.498 116.518 581.636C116.639 581.774 116.689 581.963 116.667 582.202C116.653 582.361 116.601 582.49 116.511 582.589C116.422 582.688 116.311 582.772 116.177 582.84C115.715 583.059 115.279 583.327 114.869 583.645C114.458 583.962 114.071 584.315 113.708 584.704C113.352 585.086 113.011 585.48 112.686 585.886C112.534 586.086 112.385 586.223 112.237 586.297C112.09 586.371 111.937 586.4 111.777 586.386ZM115.652 586.729C115.486 586.713 115.334 586.659 115.195 586.566C115.063 586.474 114.931 586.308 114.799 586.068C114.643 585.793 114.456 585.498 114.237 585.184C114.024 584.87 113.795 584.558 113.549 584.247C113.303 583.931 113.056 583.63 112.807 583.346C112.559 583.063 112.323 582.817 112.101 582.609C111.954 582.462 111.836 582.324 111.747 582.196C111.659 582.067 111.623 581.91 111.64 581.724C111.659 581.518 111.727 581.354 111.845 581.23C111.964 581.101 112.123 581.045 112.323 581.063C112.455 581.075 112.579 581.117 112.693 581.187C112.807 581.258 112.957 581.379 113.142 581.549C113.265 581.668 113.423 581.843 113.616 582.075C113.816 582.3 114.028 582.554 114.25 582.835C114.479 583.11 114.704 583.399 114.924 583.7C115.145 583.995 115.347 584.274 115.53 584.538C115.721 584.797 115.868 585.021 115.971 585.211C116.151 585.515 116.261 585.746 116.3 585.904C116.346 586.055 116.365 586.178 116.357 586.271C116.342 586.437 116.27 586.557 116.143 586.633C116.015 586.715 115.851 586.747 115.652 586.729ZM119.989 587.073C119.61 587.039 119.272 586.938 118.972 586.77C118.68 586.603 118.454 586.395 118.296 586.146C118.138 585.897 118.071 585.64 118.095 585.375C118.106 585.255 118.159 585.153 118.254 585.068C118.349 584.983 118.449 584.945 118.555 584.955C118.661 584.964 118.755 585 118.837 585.061C118.925 585.116 119.013 585.18 119.1 585.255C119.194 585.331 119.301 585.401 119.422 585.465C119.551 585.524 119.705 585.561 119.884 585.578C120.176 585.604 120.418 585.563 120.608 585.453C120.799 585.343 120.908 585.139 120.935 584.84C120.957 584.608 120.919 584.397 120.822 584.207C120.726 584.011 120.591 583.841 120.417 583.698C120.249 583.556 120.058 583.445 119.845 583.365C119.632 583.279 119.422 583.226 119.216 583.207C119.13 583.2 119.043 583.202 118.955 583.214C118.873 583.226 118.77 583.227 118.643 583.215C118.517 583.204 118.394 583.159 118.274 583.081C118.155 582.997 118.06 582.894 117.991 582.774C117.922 582.648 117.894 582.515 117.907 582.375C117.935 582.063 118.074 581.861 118.323 581.77C118.573 581.673 118.93 581.645 119.395 581.687C119.86 581.73 120.291 581.843 120.69 582.026C121.089 582.203 121.431 582.445 121.718 582.752C122.005 583.053 122.22 583.411 122.363 583.825C122.506 584.24 122.555 584.703 122.508 585.214C122.485 585.467 122.406 585.71 122.271 585.946C122.142 586.182 121.969 586.39 121.752 586.571C121.534 586.752 121.278 586.89 120.981 586.983C120.685 587.077 120.354 587.107 119.989 587.073ZM117.929 589.406C117.803 589.395 117.68 589.35 117.559 589.272C117.446 589.195 117.352 589.082 117.279 588.935C117.212 588.789 117.188 588.609 117.207 588.396C117.22 588.257 117.242 588.132 117.272 588.021C117.301 587.916 117.328 587.808 117.351 587.697C117.382 587.586 117.413 587.461 117.446 587.324C117.478 587.193 117.503 587.028 117.521 586.828C117.555 586.457 117.564 586.099 117.548 585.757C117.54 585.408 117.518 585.064 117.482 584.726C117.452 584.389 117.423 584.048 117.394 583.704C117.372 583.361 117.367 583.012 117.379 582.658C117.382 582.552 117.407 582.463 117.453 582.394C117.499 582.325 117.564 582.274 117.648 582.241C117.731 582.208 117.826 582.197 117.932 582.207C118.125 582.224 118.3 582.284 118.458 582.385C118.623 582.487 118.752 582.613 118.845 582.762C118.94 582.904 118.979 583.062 118.963 583.234C118.929 583.613 118.919 583.977 118.934 584.326C118.955 584.676 118.981 585.017 119.011 585.348C119.042 585.672 119.066 585.999 119.083 586.328C119.106 586.658 119.102 586.999 119.07 587.351C119.046 587.617 119.009 587.874 118.959 588.124C118.916 588.375 118.852 588.6 118.767 588.8C118.689 589 118.581 589.154 118.444 589.262C118.313 589.378 118.141 589.425 117.929 589.406ZM126.087 587.649C125.509 587.596 125.009 587.434 124.585 587.161C124.161 586.888 123.838 586.537 123.616 586.109C123.402 585.674 123.318 585.194 123.366 584.67C123.397 584.331 123.499 584.013 123.674 583.714C123.848 583.415 124.063 583.154 124.318 582.929C124.579 582.705 124.859 582.537 125.157 582.423C125.456 582.303 125.741 582.255 126.014 582.28C126.126 582.291 126.231 582.32 126.327 582.369C126.43 582.412 126.508 582.476 126.56 582.561C126.613 582.639 126.634 582.745 126.622 582.878C126.6 583.117 126.531 583.321 126.415 583.492C126.306 583.662 126.097 583.784 125.79 583.856C125.638 583.91 125.494 583.983 125.358 584.078C125.229 584.173 125.121 584.288 125.035 584.42C124.95 584.553 124.9 584.696 124.886 584.849C124.851 585.227 124.95 585.544 125.181 585.799C125.412 586.055 125.74 586.202 126.165 586.24C126.523 586.273 126.826 586.183 127.073 585.972C127.32 585.76 127.461 585.461 127.496 585.076C127.526 584.744 127.454 584.47 127.28 584.253C127.106 584.03 126.863 583.904 126.551 583.876C126.398 583.862 126.265 583.89 126.152 583.96C126.045 584.03 125.919 584.126 125.774 584.247C125.672 584.338 125.582 584.41 125.503 584.463C125.425 584.516 125.348 584.556 125.272 584.582C125.203 584.603 125.115 584.608 125.009 584.599C124.89 584.588 124.788 584.532 124.703 584.43C124.625 584.329 124.598 584.15 124.622 583.891C124.639 583.705 124.706 583.52 124.823 583.337C124.947 583.154 125.099 582.99 125.279 582.846C125.466 582.702 125.67 582.594 125.891 582.52C126.113 582.44 126.33 582.409 126.542 582.429C127.107 582.48 127.579 582.627 127.958 582.869C128.345 583.105 128.628 583.419 128.806 583.81C128.985 584.201 129.051 584.652 129.004 585.163C128.957 585.681 128.795 586.135 128.519 586.525C128.249 586.915 127.901 587.212 127.474 587.414C127.054 587.617 126.591 587.695 126.087 587.649Z" fill="#CBD5E1"/>
<path d="M53.2622 570.261L74.1027 573.727L72.9122 586.795L51.7885 586.438C51.2072 586.428 50.7568 585.926 50.8095 585.347L52.1023 571.157C52.155 570.578 52.6887 570.166 53.2622 570.261Z" fill="#FC0D0D"/>
</g>
<g opacity="0.3">
<path d="M169.171 592.988L169.915 584.821L160.137 583.93C159.386 583.862 158.833 584.618 159.125 585.313L161.841 591.787C161.984 592.129 162.304 592.363 162.673 592.396L169.171 592.988Z" fill="#1D32F7"/>
<path fill-rule="evenodd" clip-rule="evenodd" d="M255.928 593.081C256.178 590.331 254.152 587.898 251.402 587.648L185.474 581.641C183.151 581.43 181.055 582.843 180.309 584.945L170.985 584.095C170.435 584.045 169.949 584.45 169.899 585L169.187 592.809C169.137 593.359 169.543 593.846 170.093 593.896L179.452 594.749C179.858 596.886 181.637 598.585 183.912 598.793L249.84 604.799C252.59 605.049 255.022 603.023 255.273 600.273L255.928 593.081Z" fill="url(#paint3_linear_222_3)"/>
<path d="M201.67 594.575C201.365 594.547 201.101 594.43 200.879 594.222C200.657 594.014 200.478 593.74 200.341 593.4C200.205 593.059 200.113 592.679 200.064 592.26C200.015 591.84 200.011 591.402 200.053 590.943C200.077 590.678 200.102 590.442 200.128 590.237C200.16 590.026 200.195 589.828 200.232 589.644C200.269 589.454 200.317 589.257 200.376 589.055C200.441 588.853 200.515 588.626 200.599 588.372C200.653 588.217 200.74 588.107 200.859 588.045C200.986 587.982 201.108 587.957 201.228 587.968C201.381 587.982 201.513 588.041 201.624 588.144C201.735 588.242 201.815 588.363 201.862 588.507C201.916 588.646 201.923 588.791 201.882 588.941C201.83 589.218 201.785 589.458 201.746 589.662C201.708 589.866 201.673 590.067 201.641 590.265C201.617 590.457 201.593 590.689 201.568 590.961C201.535 591.326 201.519 591.643 201.521 591.911C201.53 592.179 201.551 592.399 201.582 592.569C201.62 592.74 201.672 592.868 201.738 592.955C201.803 593.041 201.876 593.088 201.956 593.095C202.095 593.108 202.246 593.101 202.409 593.076C202.579 593.051 202.737 593.012 202.882 592.958C203.035 592.899 203.161 592.833 203.261 592.762C203.362 592.684 203.416 592.609 203.423 592.536C203.433 592.416 203.393 592.312 203.3 592.223C203.215 592.129 203.082 592.046 202.901 591.976C202.727 591.9 202.509 591.837 202.246 591.786C201.989 591.736 201.691 591.699 201.352 591.674C201.166 591.664 201.018 591.594 200.91 591.463C200.808 591.327 200.767 591.159 200.785 590.96C200.794 590.86 200.842 590.771 200.93 590.692C201.024 590.613 201.145 590.564 201.294 590.544C201.43 590.523 201.604 590.489 201.816 590.441C202.035 590.388 202.258 590.328 202.485 590.261C202.719 590.196 202.94 590.122 203.148 590.04C203.356 589.959 203.528 589.878 203.662 589.796C203.797 589.708 203.869 589.621 203.877 589.535C203.884 589.455 203.857 589.385 203.795 589.326C203.741 589.261 203.636 589.205 203.479 589.157C203.324 589.103 203.1 589.055 202.809 589.016C202.519 588.969 202.145 588.925 201.687 588.883C201.454 588.862 201.228 588.848 201.008 588.841C200.788 588.828 200.628 588.817 200.529 588.808C200.35 588.791 200.215 588.726 200.125 588.61C200.035 588.495 199.998 588.354 200.013 588.188C200.044 587.85 200.194 587.599 200.463 587.436C200.732 587.273 201.172 587.22 201.783 587.275C202.328 587.325 202.829 587.404 203.288 587.513C203.746 587.621 204.142 587.761 204.475 587.932C204.814 588.104 205.072 588.318 205.249 588.575C205.427 588.832 205.5 589.137 205.467 589.489C205.449 589.694 205.366 589.908 205.218 590.129C205.078 590.35 204.834 590.559 204.489 590.755C204.143 590.951 203.652 591.124 203.015 591.274L202.989 590.789C203.384 590.865 203.709 590.969 203.965 591.099C204.221 591.229 204.422 591.375 204.568 591.535C204.714 591.696 204.813 591.862 204.864 592.034C204.922 592.207 204.943 592.376 204.928 592.542C204.892 592.941 204.761 593.277 204.535 593.551C204.317 593.819 204.042 594.035 203.713 594.199C203.383 594.363 203.039 594.472 202.679 594.526C202.325 594.588 201.989 594.604 201.67 594.575ZM208.171 595.107C207.74 595.068 207.37 594.981 207.061 594.845C206.752 594.71 206.503 594.533 206.316 594.316C206.135 594.098 206.006 593.852 205.931 593.578C205.856 593.303 205.832 593.006 205.861 592.688C205.894 592.329 205.993 591.977 206.159 591.63C206.331 591.278 206.557 590.964 206.837 590.688C207.117 590.405 207.441 590.191 207.809 590.043C208.185 589.89 208.592 589.834 209.03 589.873C209.408 589.908 209.734 590.001 210.008 590.153C210.282 590.306 210.488 590.515 210.624 590.782C210.767 591.049 210.822 591.369 210.788 591.741C210.762 592.019 210.674 592.259 210.521 592.459C210.37 592.653 210.169 592.806 209.917 592.917C209.673 593.028 209.395 593.103 209.084 593.142C208.773 593.174 208.441 593.174 208.089 593.142C207.731 593.109 207.461 593.021 207.28 592.877C207.1 592.727 207.017 592.565 207.033 592.393C207.042 592.3 207.068 592.232 207.112 592.189C207.163 592.14 207.242 592.121 207.348 592.13C207.421 592.137 207.507 592.155 207.604 592.184C207.702 592.213 207.837 592.235 208.01 592.251C208.229 592.271 208.441 592.26 208.646 592.218C208.85 592.177 209.02 592.112 209.155 592.024C209.291 591.929 209.365 591.819 209.376 591.692C209.39 591.546 209.363 591.433 209.297 591.354C209.23 591.274 209.107 591.226 208.928 591.21C208.722 591.191 208.528 591.23 208.345 591.327C208.163 591.418 207.997 591.55 207.847 591.724C207.705 591.892 207.586 592.088 207.492 592.314C207.405 592.54 207.35 592.776 207.327 593.022C207.313 593.175 207.328 593.31 207.371 593.428C207.42 593.546 207.509 593.638 207.637 593.703C207.771 593.769 207.951 593.812 208.177 593.832C208.562 593.867 208.887 593.864 209.152 593.821C209.418 593.771 209.641 593.708 209.822 593.631C210.01 593.554 210.17 593.485 210.303 593.424C210.442 593.363 210.575 593.338 210.701 593.349C210.828 593.361 210.917 593.413 210.968 593.504C211.028 593.59 211.05 593.713 211.035 593.872C211.02 594.045 210.937 594.214 210.788 594.382C210.639 594.549 210.439 594.691 210.187 594.809C209.935 594.926 209.636 595.016 209.289 595.078C208.949 595.134 208.576 595.144 208.171 595.107ZM216.882 595.901C216.603 595.875 216.371 595.744 216.185 595.506C216.006 595.262 215.881 594.916 215.808 594.467C215.742 594.013 215.74 593.447 215.802 592.77C215.816 592.61 215.825 592.477 215.828 592.371C215.832 592.257 215.823 592.163 215.803 592.087C215.784 592.012 215.753 591.945 215.711 591.888C215.67 591.824 215.612 591.765 215.536 591.711C215.709 591.727 215.85 591.757 215.96 591.8C216.071 591.837 216.152 591.901 216.204 591.993C216.256 592.078 216.264 592.213 216.227 592.397C216.128 592.241 216.04 592.132 215.966 592.072C215.891 592.011 215.807 591.977 215.714 591.969C215.588 591.957 215.435 592.017 215.256 592.148C215.083 592.279 214.895 592.473 214.691 592.729C214.487 592.985 214.281 593.294 214.074 593.657C213.874 594.02 213.679 594.424 213.492 594.869C213.38 595.133 213.267 595.31 213.152 595.4C213.037 595.49 212.886 595.527 212.7 595.51C212.375 595.48 212.153 595.309 212.034 594.997C211.915 594.685 211.877 594.297 211.919 593.832C211.949 593.507 211.988 593.226 212.036 592.989C212.092 592.746 212.145 592.524 212.197 592.321C212.257 592.112 212.309 591.899 212.356 591.683C212.409 591.467 212.448 591.222 212.473 590.95C212.494 590.718 212.563 590.55 212.679 590.447C212.803 590.344 212.97 590.303 213.183 590.322C213.402 590.342 213.565 590.427 213.672 590.578C213.785 590.728 213.828 590.96 213.799 591.272C213.782 591.464 213.753 591.636 213.712 591.786C213.672 591.936 213.624 592.096 213.568 592.265C213.519 592.435 213.47 592.641 213.421 592.884C213.372 593.128 213.334 593.439 213.306 593.818L212.977 593.356C213.265 592.686 213.583 592.139 213.929 591.716C214.277 591.285 214.63 590.973 214.989 590.778C215.355 590.577 215.701 590.491 216.027 590.521C216.485 590.563 216.811 590.733 217.004 591.032C217.205 591.325 217.284 591.707 217.241 592.178C217.199 592.643 217.176 593.039 217.173 593.367C217.171 593.688 217.193 593.951 217.242 594.156C217.29 594.361 217.365 594.526 217.468 594.649C217.552 594.75 217.614 594.849 217.652 594.947C217.69 595.044 217.702 595.165 217.689 595.311C217.673 595.484 217.593 595.631 217.448 595.751C217.31 595.873 217.121 595.922 216.882 595.901ZM218.769 596.133C218.623 596.12 218.503 596.069 218.411 595.98C218.325 595.892 218.28 595.764 218.275 595.596C218.277 595.429 218.339 595.223 218.462 594.98C218.586 594.724 218.759 594.442 218.981 594.134C219.203 593.826 219.469 593.512 219.78 593.192C220.09 592.866 220.43 592.556 220.798 592.261C221.174 591.961 221.566 591.695 221.975 591.465C222.13 591.378 222.271 591.311 222.395 591.262C222.527 591.214 222.647 591.181 222.756 591.164C222.871 591.148 222.972 591.144 223.058 591.151C223.244 591.168 223.394 591.246 223.509 591.383C223.63 591.522 223.68 591.71 223.658 591.949C223.644 592.109 223.592 592.238 223.503 592.337C223.413 592.436 223.302 592.519 223.168 592.587C222.707 592.806 222.27 593.075 221.86 593.392C221.45 593.709 221.063 594.062 220.699 594.451C220.343 594.834 220.002 595.228 219.678 595.633C219.526 595.834 219.376 595.971 219.229 596.044C219.081 596.118 218.928 596.147 218.769 596.133ZM222.643 596.476C222.477 596.461 222.325 596.407 222.186 596.314C222.054 596.221 221.922 596.055 221.79 595.816C221.634 595.54 221.447 595.246 221.228 594.931C221.015 594.617 220.786 594.305 220.54 593.995C220.294 593.678 220.047 593.377 219.799 593.094C219.55 592.81 219.315 592.564 219.093 592.357C218.945 592.209 218.827 592.071 218.739 591.943C218.65 591.814 218.614 591.657 218.631 591.471C218.65 591.265 218.718 591.101 218.837 590.978C218.956 590.848 219.115 590.792 219.314 590.81C219.447 590.822 219.57 590.864 219.684 590.934C219.798 591.005 219.948 591.126 220.133 591.297C220.256 591.415 220.414 591.59 220.607 591.822C220.808 592.048 221.019 592.301 221.241 592.583C221.47 592.858 221.695 593.146 221.915 593.447C222.136 593.742 222.338 594.021 222.522 594.286C222.712 594.544 222.859 594.768 222.962 594.959C223.142 595.263 223.252 595.494 223.291 595.651C223.337 595.803 223.356 595.925 223.348 596.018C223.333 596.184 223.262 596.305 223.134 596.38C223.006 596.462 222.843 596.494 222.643 596.476ZM226.98 596.821C226.602 596.786 226.263 596.685 225.963 596.517C225.671 596.35 225.445 596.142 225.287 595.893C225.129 595.645 225.062 595.387 225.086 595.122C225.097 595.002 225.15 594.9 225.245 594.815C225.34 594.73 225.44 594.692 225.546 594.702C225.653 594.712 225.747 594.747 225.828 594.808C225.917 594.863 226.005 594.928 226.091 595.003C226.185 595.078 226.292 595.148 226.414 595.213C226.542 595.271 226.696 595.309 226.875 595.325C227.168 595.352 227.409 595.31 227.6 595.2C227.79 595.09 227.899 594.886 227.927 594.587C227.948 594.355 227.91 594.144 227.814 593.955C227.718 593.758 227.583 593.589 227.408 593.446C227.24 593.303 227.05 593.192 226.836 593.112C226.623 593.026 226.414 592.973 226.208 592.955C226.121 592.947 226.034 592.949 225.946 592.961C225.865 592.974 225.761 592.974 225.635 592.963C225.508 592.951 225.385 592.907 225.265 592.829C225.146 592.744 225.051 592.642 224.982 592.522C224.913 592.395 224.885 592.262 224.898 592.122C224.926 591.81 225.065 591.609 225.314 591.518C225.564 591.42 225.922 591.392 226.386 591.435C226.851 591.477 227.283 591.59 227.681 591.773C228.08 591.95 228.423 592.192 228.709 592.5C228.997 592.8 229.212 593.158 229.355 593.573C229.498 593.987 229.546 594.45 229.499 594.962C229.476 595.214 229.397 595.458 229.262 595.693C229.133 595.929 228.96 596.138 228.743 596.319C228.526 596.5 228.269 596.637 227.972 596.73C227.676 596.824 227.345 596.854 226.98 596.821ZM224.92 599.153C224.794 599.142 224.671 599.097 224.551 599.019C224.437 598.942 224.344 598.83 224.27 598.683C224.203 598.536 224.179 598.356 224.199 598.144C224.211 598.004 224.233 597.879 224.263 597.768C224.293 597.664 224.319 597.556 224.343 597.444C224.373 597.333 224.404 597.209 224.437 597.071C224.469 596.94 224.494 596.775 224.512 596.576C224.546 596.204 224.555 595.847 224.54 595.504C224.531 595.155 224.509 594.812 224.473 594.474C224.443 594.136 224.414 593.795 224.385 593.451C224.363 593.108 224.358 592.759 224.37 592.406C224.373 592.299 224.398 592.211 224.444 592.141C224.491 592.072 224.556 592.021 224.639 591.988C224.722 591.956 224.817 591.944 224.923 591.954C225.116 591.972 225.291 592.031 225.449 592.132C225.614 592.235 225.743 592.36 225.837 592.509C225.931 592.652 225.97 592.809 225.954 592.982C225.92 593.36 225.91 593.724 225.925 594.074C225.947 594.424 225.973 594.764 226.003 595.095C226.033 595.419 226.057 595.746 226.074 596.075C226.097 596.406 226.093 596.747 226.061 597.098C226.037 597.364 226 597.622 225.951 597.872C225.908 598.122 225.844 598.347 225.758 598.547C225.68 598.747 225.572 598.902 225.435 599.01C225.304 599.125 225.132 599.173 224.92 599.153ZM233.078 597.396C232.5 597.344 232 597.181 231.576 596.908C231.152 596.635 230.83 596.284 230.608 595.856C230.393 595.421 230.309 594.942 230.357 594.417C230.388 594.079 230.491 593.76 230.665 593.461C230.84 593.162 231.054 592.901 231.309 592.676C231.57 592.452 231.85 592.284 232.148 592.17C232.447 592.05 232.733 592.003 233.005 592.028C233.118 592.038 233.222 592.067 233.318 592.116C233.421 592.159 233.499 592.223 233.552 592.308C233.605 592.387 233.625 592.492 233.613 592.625C233.591 592.864 233.522 593.069 233.407 593.239C233.297 593.41 233.089 593.531 232.781 593.604C232.629 593.657 232.485 593.731 232.349 593.825C232.22 593.921 232.112 594.035 232.027 594.168C231.941 594.3 231.891 594.443 231.877 594.596C231.843 594.974 231.941 595.291 232.172 595.547C232.403 595.802 232.731 595.949 233.156 595.988C233.515 596.02 233.817 595.931 234.064 595.719C234.311 595.507 234.452 595.209 234.487 594.824C234.517 594.492 234.445 594.217 234.271 594.001C234.097 593.777 233.854 593.651 233.542 593.623C233.39 593.609 233.256 593.637 233.143 593.707C233.036 593.778 232.91 593.873 232.765 593.994C232.663 594.085 232.573 594.157 232.495 594.21C232.416 594.263 232.339 594.303 232.263 594.33C232.194 594.35 232.107 594.356 232 594.346C231.881 594.335 231.779 594.279 231.694 594.178C231.616 594.077 231.589 593.897 231.613 593.638C231.63 593.452 231.697 593.267 231.814 593.084C231.938 592.901 232.09 592.737 232.27 592.593C232.458 592.45 232.662 592.341 232.882 592.267C233.104 592.187 233.321 592.157 233.533 592.176C234.098 592.228 234.57 592.374 234.949 592.616C235.336 592.852 235.619 593.166 235.798 593.557C235.976 593.948 236.042 594.4 235.996 594.911C235.948 595.429 235.786 595.882 235.51 596.272C235.24 596.663 234.892 596.959 234.465 597.161C234.045 597.364 233.583 597.442 233.078 597.396Z" fill="#CBD5E1"/>
<path d="M160.253 580.009L181.094 583.475L179.903 596.542L158.779 596.185C158.198 596.175 157.748 595.673 157.8 595.094L159.093 580.905C159.146 580.326 159.68 579.913 160.253 580.009Z" fill="#1D32F7"/>
</g>
<g opacity="0.3">
<path d="M276.162 602.736L276.906 594.568L267.129 593.678C266.378 593.609 265.824 594.365 266.116 595.06L268.833 601.535C268.976 601.876 269.296 602.11 269.664 602.144L276.162 602.736Z" fill="#00944D"/>
<path fill-rule="evenodd" clip-rule="evenodd" d="M362.919 602.828C363.17 600.078 361.143 597.646 358.393 597.395L292.466 591.389C290.142 591.177 288.046 592.59 287.3 594.692L277.977 593.842C277.427 593.792 276.94 594.198 276.89 594.748L276.179 602.557C276.129 603.107 276.534 603.593 277.084 603.643L286.444 604.496C286.849 606.633 288.629 608.333 290.903 608.54L356.831 614.546C359.581 614.797 362.013 612.771 362.264 610.021L362.919 602.828Z" fill="url(#paint4_linear_222_3)"/>
<path d="M308.662 604.322C308.356 604.295 308.092 604.177 307.87 603.969C307.648 603.762 307.469 603.487 307.333 603.147C307.196 602.807 307.104 602.427 307.055 602.007C307.006 601.588 307.003 601.149 307.044 600.691C307.069 600.425 307.093 600.19 307.119 599.985C307.151 599.773 307.186 599.576 307.223 599.392C307.26 599.201 307.308 599.004 307.367 598.802C307.432 598.601 307.507 598.373 307.59 598.12C307.644 597.964 307.731 597.855 307.851 597.792C307.977 597.73 308.1 597.704 308.219 597.715C308.372 597.729 308.504 597.788 308.615 597.892C308.726 597.989 308.806 598.11 308.853 598.255C308.907 598.394 308.914 598.538 308.874 598.688C308.822 598.965 308.776 599.205 308.738 599.409C308.699 599.613 308.664 599.814 308.633 600.012C308.608 600.204 308.584 600.436 308.559 600.708C308.526 601.073 308.51 601.39 308.513 601.658C308.522 601.927 308.542 602.146 308.573 602.316C308.611 602.487 308.663 602.616 308.729 602.702C308.795 602.788 308.867 602.835 308.947 602.842C309.086 602.855 309.238 602.849 309.401 602.823C309.57 602.799 309.728 602.759 309.873 602.706C310.026 602.646 310.152 602.581 310.253 602.509C310.353 602.431 310.407 602.356 310.414 602.283C310.425 602.164 310.384 602.059 310.292 601.971C310.207 601.876 310.073 601.793 309.892 601.723C309.719 601.647 309.5 601.584 309.237 601.533C308.98 601.483 308.683 601.446 308.343 601.422C308.157 601.411 308.009 601.341 307.901 601.211C307.799 601.074 307.758 600.906 307.776 600.707C307.785 600.608 307.833 600.518 307.921 600.439C308.015 600.361 308.137 600.312 308.286 600.292C308.422 600.271 308.595 600.236 308.807 600.189C309.026 600.135 309.249 600.075 309.476 600.009C309.71 599.943 309.931 599.869 310.139 599.788C310.347 599.706 310.519 599.625 310.653 599.543C310.789 599.455 310.86 599.368 310.868 599.282C310.875 599.202 310.848 599.133 310.787 599.074C310.732 599.008 310.627 598.952 310.471 598.904C310.315 598.85 310.092 598.803 309.801 598.763C309.51 598.716 309.136 598.672 308.678 598.63C308.446 598.609 308.219 598.595 307.999 598.589C307.779 598.575 307.62 598.564 307.52 598.555C307.341 598.539 307.206 598.473 307.116 598.358C307.026 598.242 306.989 598.102 307.004 597.936C307.035 597.597 307.185 597.346 307.454 597.183C307.723 597.021 308.164 596.967 308.774 597.023C309.319 597.072 309.82 597.151 310.279 597.26C310.738 597.369 311.133 597.509 311.466 597.679C311.805 597.851 312.063 598.065 312.241 598.322C312.418 598.58 312.491 598.884 312.459 599.236C312.44 599.442 312.357 599.655 312.21 599.876C312.069 600.097 311.826 600.306 311.48 600.502C311.134 600.698 310.643 600.871 310.007 601.021L309.98 600.536C310.375 600.613 310.701 600.716 310.956 600.846C311.212 600.977 311.413 601.122 311.559 601.283C311.705 601.443 311.804 601.61 311.855 601.782C311.913 601.954 311.935 602.124 311.919 602.29C311.883 602.688 311.752 603.024 311.526 603.298C311.308 603.566 311.034 603.782 310.704 603.946C310.375 604.11 310.03 604.219 309.67 604.274C309.316 604.335 308.98 604.351 308.662 604.322ZM315.163 604.854C314.731 604.815 314.361 604.728 314.052 604.593C313.743 604.457 313.495 604.281 313.307 604.063C313.126 603.846 312.998 603.6 312.922 603.325C312.847 603.05 312.824 602.754 312.853 602.435C312.885 602.076 312.984 601.724 313.15 601.378C313.323 601.025 313.549 600.711 313.828 600.435C314.108 600.153 314.432 599.938 314.801 599.791C315.176 599.638 315.583 599.581 316.021 599.621C316.399 599.655 316.726 599.749 317 599.901C317.274 600.053 317.479 600.262 317.615 600.529C317.758 600.797 317.813 601.116 317.779 601.488C317.753 601.767 317.665 602.006 317.513 602.207C317.361 602.4 317.16 602.553 316.909 602.664C316.664 602.775 316.386 602.851 316.075 602.889C315.764 602.921 315.433 602.921 315.081 602.889C314.722 602.856 314.452 602.768 314.271 602.624C314.091 602.474 314.009 602.313 314.024 602.14C314.033 602.047 314.059 601.979 314.103 601.936C314.154 601.887 314.233 601.868 314.339 601.877C314.412 601.884 314.498 601.902 314.596 601.931C314.693 601.96 314.829 601.982 315.001 601.998C315.22 602.018 315.432 602.007 315.637 601.966C315.841 601.924 316.011 601.859 316.146 601.771C316.282 601.676 316.356 601.566 316.367 601.44C316.381 601.294 316.354 601.181 316.288 601.101C316.221 601.021 316.099 600.973 315.919 600.957C315.714 600.938 315.519 600.977 315.336 601.075C315.154 601.165 314.988 601.297 314.838 601.471C314.696 601.639 314.577 601.836 314.483 602.061C314.396 602.288 314.341 602.524 314.318 602.769C314.304 602.922 314.319 603.057 314.362 603.175C314.411 603.293 314.5 603.385 314.628 603.45C314.762 603.516 314.943 603.559 315.168 603.58C315.553 603.615 315.878 603.611 316.143 603.568C316.409 603.519 316.632 603.455 316.813 603.378C317.001 603.302 317.161 603.232 317.294 603.171C317.434 603.11 317.566 603.085 317.693 603.097C317.819 603.108 317.908 603.16 317.96 603.252C318.019 603.337 318.041 603.46 318.027 603.619C318.011 603.792 317.928 603.962 317.779 604.129C317.63 604.296 317.43 604.438 317.178 604.556C316.926 604.674 316.627 604.764 316.28 604.826C315.94 604.882 315.568 604.891 315.163 604.854ZM323.873 605.648C323.594 605.623 323.362 605.491 323.176 605.253C322.997 605.009 322.872 604.663 322.799 604.215C322.733 603.76 322.731 603.194 322.793 602.517C322.807 602.358 322.816 602.225 322.819 602.118C322.823 602.004 322.815 601.91 322.795 601.834C322.775 601.759 322.744 601.693 322.702 601.635C322.661 601.571 322.603 601.512 322.528 601.459C322.7 601.474 322.842 601.504 322.951 601.547C323.062 601.584 323.143 601.649 323.195 601.74C323.247 601.825 323.255 601.96 323.218 602.144C323.119 601.988 323.032 601.879 322.957 601.819C322.882 601.759 322.798 601.724 322.705 601.716C322.579 601.704 322.426 601.764 322.247 601.895C322.074 602.027 321.886 602.22 321.682 602.476C321.478 602.732 321.272 603.041 321.065 603.404C320.865 603.767 320.671 604.171 320.483 604.616C320.372 604.881 320.258 605.058 320.143 605.148C320.028 605.237 319.877 605.274 319.691 605.257C319.366 605.227 319.144 605.057 319.025 604.744C318.906 604.432 318.868 604.044 318.91 603.579C318.94 603.254 318.979 602.973 319.027 602.736C319.083 602.494 319.137 602.271 319.189 602.068C319.248 601.859 319.301 601.647 319.347 601.43C319.4 601.214 319.439 600.97 319.464 600.698C319.485 600.465 319.554 600.297 319.671 600.194C319.794 600.092 319.962 600.05 320.174 600.069C320.393 600.089 320.556 600.175 320.663 600.325C320.776 600.476 320.819 600.707 320.79 601.019C320.773 601.212 320.744 601.383 320.703 601.533C320.663 601.684 320.615 601.843 320.559 602.012C320.51 602.182 320.461 602.388 320.413 602.632C320.364 602.875 320.325 603.186 320.297 603.565L319.968 603.103C320.257 602.433 320.574 601.887 320.921 601.463C321.268 601.033 321.621 600.72 321.98 600.525C322.347 600.324 322.692 600.239 323.018 600.268C323.476 600.31 323.802 600.48 323.995 600.779C324.196 601.072 324.275 601.454 324.232 601.925C324.19 602.39 324.167 602.786 324.164 603.114C324.162 603.435 324.185 603.698 324.233 603.903C324.281 604.109 324.357 604.273 324.459 604.396C324.544 604.497 324.605 604.597 324.643 604.694C324.681 604.791 324.693 604.913 324.68 605.059C324.664 605.231 324.584 605.378 324.439 605.499C324.301 605.62 324.112 605.67 323.873 605.648ZM325.76 605.88C325.614 605.867 325.495 605.816 325.402 605.727C325.317 605.639 325.271 605.511 325.266 605.343C325.268 605.176 325.331 604.971 325.453 604.728C325.577 604.471 325.75 604.189 325.972 603.881C326.194 603.573 326.46 603.26 326.771 602.94C327.082 602.613 327.421 602.303 327.789 602.008C328.165 601.708 328.557 601.442 328.967 601.212C329.122 601.126 329.262 601.058 329.387 601.009C329.518 600.961 329.638 600.928 329.747 600.911C329.862 600.895 329.963 600.891 330.049 600.899C330.235 600.916 330.386 600.993 330.5 601.131C330.622 601.269 330.671 601.458 330.65 601.697C330.635 601.856 330.583 601.985 330.494 602.084C330.404 602.183 330.293 602.267 330.16 602.335C329.698 602.554 329.262 602.822 328.851 603.139C328.441 603.457 328.054 603.81 327.69 604.198C327.334 604.581 326.994 604.975 326.669 605.381C326.517 605.581 326.367 605.718 326.22 605.792C326.072 605.865 325.919 605.895 325.76 605.88ZM329.635 606.223C329.469 606.208 329.316 606.154 329.177 606.061C329.045 605.969 328.913 605.803 328.781 605.563C328.625 605.288 328.438 604.993 328.219 604.678C328.007 604.364 327.777 604.052 327.531 603.742C327.285 603.425 327.038 603.125 326.79 602.841C326.541 602.557 326.306 602.312 326.084 602.104C325.936 601.957 325.819 601.819 325.73 601.69C325.641 601.562 325.605 601.404 325.622 601.218C325.641 601.013 325.709 600.848 325.828 600.725C325.947 600.595 326.106 600.54 326.305 600.558C326.438 600.57 326.561 600.611 326.675 600.682C326.789 600.752 326.939 600.873 327.124 601.044C327.247 601.162 327.405 601.337 327.599 601.569C327.799 601.795 328.01 602.049 328.232 602.33C328.461 602.605 328.686 602.893 328.906 603.195C329.127 603.489 329.329 603.769 329.513 604.033C329.704 604.291 329.85 604.516 329.954 604.706C330.133 605.01 330.243 605.241 330.282 605.398C330.329 605.55 330.348 605.672 330.339 605.765C330.324 605.931 330.253 606.052 330.125 606.127C329.997 606.209 329.834 606.241 329.635 606.223ZM333.971 606.568C333.593 606.534 333.254 606.432 332.955 606.265C332.662 606.097 332.437 605.889 332.278 605.641C332.12 605.392 332.053 605.135 332.078 604.869C332.089 604.75 332.141 604.647 332.236 604.562C332.331 604.477 332.431 604.44 332.538 604.449C332.644 604.459 332.738 604.494 332.819 604.555C332.908 604.61 332.996 604.675 333.083 604.75C333.176 604.825 333.284 604.895 333.405 604.96C333.533 605.019 333.687 605.056 333.867 605.072C334.159 605.099 334.4 605.057 334.591 604.948C334.782 604.838 334.891 604.633 334.918 604.335C334.939 604.102 334.901 603.891 334.805 603.702C334.709 603.506 334.574 603.336 334.399 603.193C334.232 603.05 334.041 602.939 333.827 602.86C333.614 602.773 333.405 602.721 333.199 602.702C333.113 602.694 333.025 602.696 332.937 602.708C332.856 602.721 332.752 602.722 332.626 602.71C332.5 602.699 332.377 602.654 332.256 602.576C332.137 602.491 332.043 602.389 331.973 602.269C331.904 602.142 331.876 602.009 331.889 601.87C331.917 601.558 332.056 601.356 332.306 601.265C332.555 601.167 332.913 601.14 333.378 601.182C333.842 601.224 334.274 601.337 334.672 601.521C335.071 601.698 335.414 601.94 335.7 602.247C335.988 602.548 336.203 602.905 336.346 603.32C336.489 603.735 336.537 604.198 336.49 604.709C336.467 604.961 336.388 605.205 336.253 605.44C336.124 605.676 335.951 605.885 335.734 606.066C335.517 606.247 335.26 606.384 334.964 606.478C334.667 606.571 334.336 606.601 333.971 606.568ZM331.911 608.901C331.785 608.889 331.662 608.845 331.542 608.767C331.428 608.689 331.335 608.577 331.261 608.43C331.194 608.283 331.17 608.104 331.19 607.891C331.203 607.752 331.224 607.626 331.254 607.515C331.284 607.411 331.31 607.303 331.334 607.191C331.364 607.08 331.396 606.956 331.428 606.818C331.46 606.687 331.485 606.522 331.503 606.323C331.537 605.951 331.546 605.594 331.531 605.251C331.522 604.902 331.5 604.559 331.464 604.221C331.434 603.883 331.405 603.543 331.376 603.199C331.354 602.855 331.349 602.507 331.361 602.153C331.364 602.046 331.389 601.958 331.435 601.889C331.482 601.819 331.547 601.768 331.63 601.736C331.713 601.703 331.808 601.692 331.914 601.701C332.107 601.719 332.282 601.778 332.44 601.88C332.605 601.982 332.734 602.107 332.828 602.256C332.922 602.399 332.961 602.556 332.945 602.729C332.911 603.108 332.901 603.471 332.916 603.821C332.938 604.171 332.964 604.511 332.994 604.842C333.025 605.166 333.048 605.493 333.065 605.823C333.089 606.153 333.084 606.494 333.052 606.846C333.028 607.111 332.991 607.369 332.942 607.619C332.899 607.869 332.835 608.095 332.75 608.294C332.671 608.495 332.563 608.649 332.426 608.757C332.295 608.872 332.124 608.92 331.911 608.901ZM340.069 607.144C339.492 607.091 338.991 606.928 338.567 606.655C338.144 606.382 337.821 606.032 337.599 605.603C337.384 605.169 337.3 604.689 337.348 604.164C337.379 603.826 337.482 603.507 337.656 603.208C337.831 602.91 338.045 602.648 338.3 602.424C338.562 602.2 338.841 602.031 339.139 601.918C339.438 601.798 339.724 601.75 339.996 601.775C340.109 601.785 340.213 601.815 340.309 601.864C340.412 601.907 340.49 601.971 340.543 602.056C340.596 602.134 340.616 602.24 340.604 602.373C340.582 602.612 340.514 602.816 340.398 602.986C340.288 603.157 340.08 603.279 339.772 603.351C339.62 603.404 339.476 603.478 339.34 603.573C339.211 603.668 339.104 603.782 339.018 603.915C338.932 604.048 338.882 604.19 338.868 604.343C338.834 604.722 338.932 605.038 339.163 605.294C339.394 605.549 339.722 605.696 340.147 605.735C340.506 605.768 340.809 605.678 341.055 605.466C341.302 605.254 341.443 604.956 341.478 604.571C341.509 604.239 341.437 603.965 341.262 603.748C341.088 603.525 340.845 603.399 340.533 603.37C340.381 603.356 340.248 603.384 340.134 603.454C340.027 603.525 339.901 603.621 339.757 603.741C339.655 603.832 339.564 603.904 339.486 603.958C339.407 604.011 339.33 604.051 339.254 604.077C339.185 604.098 339.098 604.103 338.991 604.093C338.872 604.082 338.77 604.026 338.686 603.925C338.608 603.824 338.581 603.644 338.604 603.385C338.621 603.199 338.688 603.015 338.805 602.831C338.929 602.648 339.081 602.485 339.262 602.341C339.449 602.197 339.653 602.088 339.874 602.015C340.095 601.935 340.312 601.904 340.525 601.923C341.089 601.975 341.561 602.122 341.941 602.364C342.327 602.6 342.61 602.913 342.789 603.305C342.967 603.696 343.033 604.147 342.987 604.658C342.94 605.176 342.778 605.63 342.501 606.02C342.231 606.41 341.883 606.706 341.456 606.909C341.036 607.111 340.574 607.19 340.069 607.144Z" fill="#CBD5E1"/>
<path d="M267.244 589.756L288.085 593.222L286.894 606.29L265.771 605.932C265.189 605.922 264.739 605.421 264.792 604.842L266.084 590.652C266.137 590.073 266.671 589.661 267.244 589.756Z" fill="#00944D"/>
</g>
<defs>
<filter id="filter0_dddd_222_3" x="0.96582" y="0.614258" width="825.225" height="994.597" filterUnits="userSpaceOnUse" color-interpolation-filters="sRGB">
<feFlood flood-opacity="0" result="BackgroundImageFix"/>
<feColorMatrix in="SourceAlpha" type="matrix" values="0 0 0 0 0 0 0 0 0 0 0 0 0 0 0 0 0 0 127 0" result="hardAlpha"/>
<feOffset dx="16" dy="16"/>
<feGaussianBlur stdDeviation="25"/>
<feColorMatrix type="matrix" values="0 0 0 0 0 0 0 0 0 0 0 0 0 0 0 0 0 0 0.1 0"/>
<feBlend mode="normal" in2="BackgroundImageFix" result="effect1_dropShadow_222_3"/>
<feColorMatrix in="SourceAlpha" type="matrix" values="0 0 0 0 0 0 0 0 0 0 0 0 0 0 0 0 0 0 127 0" result="hardAlpha"/>
<feOffset dx="62" dy="65"/>
<feGaussianBlur stdDeviation="45"/>
<feColorMatrix type="matrix" values="0 0 0 0 0 0 0 0 0 0 0 0 0 0 0 0 0 0 0.09 0"/>
<feBlend mode="normal" in2="effect1_dropShadow_222_3" result="effect2_dropShadow_222_3"/>
<feColorMatrix in="SourceAlpha" type="matrix" values="0 0 0 0 0 0 0 0 0 0 0 0 0 0 0 0 0 0 127 0" result="hardAlpha"/>
<feOffset dx="140" dy="147"/>
<feGaussianBlur stdDeviation="61"/>
<feColorMatrix type="matrix" values="0 0 0 0 0 0 0 0 0 0 0 0 0 0 0 0 0 0 0.05 0"/>
<feBlend mode="normal" in2="effect2_dropShadow_222_3" result="effect3_dropShadow_222_3"/>
<feColorMatrix in="SourceAlpha" type="matrix" values="0 0 0 0 0 0 0 0 0 0 0 0 0 0 0 0 0 0 127 0" result="hardAlpha"/>
<feOffset dx="249" dy="261"/>
<feGaussianBlur stdDeviation="72"/>
<feColorMatrix type="matrix" values="0 0 0 0 0 0 0 0 0 0 0 0 0 0 0 0 0 0 0.01 0"/>
<feBlend mode="normal" in2="effect3_dropShadow_222_3" result="effect4_dropShadow_222_3"/>
<feBlend mode="normal" in="SourceGraphic" in2="effect4_dropShadow_222_3" result="shape"/>
</filter>
<linearGradient id="paint0_linear_222_3" x1="276.81" y1="338.434" x2="397.29" y2="529.367" gradientUnits="userSpaceOnUse">
<stop stop-color="#F9FAFB"/>
<stop offset="1" stop-color="#F9FAFB" stop-opacity="0.7"/>
</linearGradient>
<radialGradient id="paint1_radial_222_3" cx="0" cy="0" r="1" gradientUnits="userSpaceOnUse" gradientTransform="translate(146.164 98.3115) rotate(46.1711) scale(32.4772 21.3513)">
<stop stop-color="white"/>
<stop offset="1" stop-color="#F9FAFB"/>
</radialGradient>
<linearGradient id="paint2_linear_222_3" x1="112.033" y1="577.15" x2="110.365" y2="591.755" gradientUnits="userSpaceOnUse">
<stop stop-color="#64748B"/>
<stop offset="1" stop-color="#47576C"/>
</linearGradient>
<linearGradient id="paint3_linear_222_3" x1="219.024" y1="586.898" x2="217.356" y2="601.502" gradientUnits="userSpaceOnUse">
<stop stop-color="#64748B"/>
<stop offset="1" stop-color="#47576C"/>
</linearGradient>
<linearGradient id="paint4_linear_222_3" x1="326.015" y1="596.645" x2="324.348" y2="611.249" gradientUnits="userSpaceOnUse">
<stop stop-color="#64748B"/>
<stop offset="1" stop-color="#47576C"/>
</linearGradient>
</defs>
</svg>
