<svg width="98" height="18" viewBox="0 0 98 18" fill="none" xmlns="http://www.w3.org/2000/svg">
<path d="M11.481 12.7793V4.57825H1.6628C0.908667 4.57825 0.425912 5.38121 0.779605 6.04725L4.07259 12.2483C4.24611 12.5751 4.58583 12.7793 4.95579 12.7793H11.481Z" fill="#00944D"/>
<path fill-rule="evenodd" clip-rule="evenodd" d="M97.8885 5C97.8885 2.23858 95.6499 3.58183e-06 92.8885 3.4384e-06L26.6877 0C24.3549 -1.2116e-07 22.3953 1.59749 21.8431 3.75818H12.4812C11.9289 3.75818 11.4812 4.20589 11.4812 4.75818L11.4812 12.5995C11.4812 13.1518 11.9289 13.5995 12.4812 13.5995H21.8797C22.4778 15.6912 24.4039 17.2223 26.6877 17.2223L92.8885 17.2223C95.6499 17.2223 97.8885 14.9837 97.8885 12.2223V5Z" fill="url(#paint0_linear_218_107)"/>
<path d="M43.9902 11.411C43.6835 11.411 43.4102 11.3176 43.1702 11.131C42.9302 10.9443 42.7269 10.6876 42.5602 10.361C42.3935 10.0343 42.2669 9.66431 42.1802 9.25098C42.0935 8.83764 42.0502 8.40098 42.0502 7.94098C42.0502 7.67431 42.0535 7.43764 42.0602 7.23098C42.0735 7.01764 42.0902 6.81764 42.1102 6.63098C42.1302 6.43764 42.1602 6.23764 42.2002 6.03098C42.2469 5.82431 42.3002 5.59098 42.3602 5.33098C42.4002 5.17098 42.4769 5.05431 42.5902 4.98098C42.7102 4.90764 42.8302 4.87098 42.9502 4.87098C43.1035 4.87098 43.2402 4.91764 43.3602 5.01098C43.4802 5.09764 43.5702 5.21098 43.6302 5.35098C43.6969 5.48431 43.7169 5.62764 43.6902 5.78098C43.6635 6.06098 43.6402 6.30431 43.6202 6.51098C43.6002 6.71764 43.5835 6.92098 43.5702 7.12098C43.5635 7.31431 43.5602 7.54764 43.5602 7.82098C43.5602 8.18764 43.5735 8.50431 43.6002 8.77098C43.6335 9.03764 43.6735 9.25431 43.7202 9.42098C43.7735 9.58764 43.8369 9.71098 43.9102 9.79098C43.9835 9.87098 44.0602 9.91098 44.1402 9.91098C44.2802 9.91098 44.4302 9.89098 44.5902 9.85098C44.7569 9.81098 44.9102 9.75764 45.0502 9.69098C45.1969 9.61764 45.3169 9.54098 45.4102 9.46098C45.5035 9.37431 45.5502 9.29431 45.5502 9.22098C45.5502 9.10098 45.5002 9.00098 45.4002 8.92098C45.3069 8.83431 45.1669 8.76431 44.9802 8.71098C44.8002 8.65098 44.5769 8.60764 44.3102 8.58098C44.0502 8.55431 43.7502 8.54431 43.4102 8.55098C43.2235 8.55764 43.0702 8.50098 42.9502 8.38098C42.8369 8.25431 42.7802 8.09098 42.7802 7.89098C42.7802 7.79098 42.8202 7.69764 42.9002 7.61098C42.9869 7.52431 43.1035 7.46431 43.2502 7.43098C43.3835 7.39764 43.5535 7.34764 43.7602 7.28098C43.9735 7.20764 44.1902 7.12764 44.4102 7.04098C44.6369 6.95431 44.8502 6.86098 45.0502 6.76098C45.2502 6.66098 45.4135 6.56431 45.5402 6.47098C45.6669 6.37098 45.7302 6.27764 45.7302 6.19098C45.7302 6.11098 45.6969 6.04431 45.6302 5.99098C45.5702 5.93098 45.4602 5.88431 45.3002 5.85098C45.1402 5.81098 44.9135 5.78431 44.6202 5.77098C44.3269 5.75098 43.9502 5.74098 43.4902 5.74098C43.2569 5.74098 43.0302 5.74764 42.8102 5.76098C42.5902 5.76764 42.4302 5.77098 42.3302 5.77098C42.1502 5.77098 42.0102 5.71764 41.9102 5.61098C41.8102 5.50431 41.7602 5.36764 41.7602 5.20098C41.7602 4.86098 41.8869 4.59764 42.1402 4.41098C42.3935 4.22431 42.8269 4.13098 43.4402 4.13098C43.9869 4.13098 44.4935 4.16431 44.9602 4.23098C45.4269 4.29764 45.8335 4.40098 46.1802 4.54098C46.5335 4.68098 46.8102 4.87098 47.0102 5.11098C47.2102 5.35098 47.3102 5.64764 47.3102 6.00098C47.3102 6.20764 47.2469 6.42764 47.1202 6.66098C47.0002 6.89431 46.7769 7.12431 46.4502 7.35098C46.1235 7.57764 45.6502 7.79431 45.0302 8.00098L44.9602 7.52098C45.3602 7.56098 45.6935 7.63431 45.9602 7.74098C46.2269 7.84764 46.4402 7.97431 46.6002 8.12098C46.7602 8.26764 46.8735 8.42431 46.9402 8.59098C47.0135 8.75764 47.0502 8.92431 47.0502 9.09098C47.0502 9.49098 46.9502 9.83764 46.7502 10.131C46.5569 10.4176 46.3035 10.6576 45.9902 10.851C45.6769 11.0443 45.3435 11.1843 44.9902 11.271C44.6435 11.3643 44.3102 11.411 43.9902 11.411ZM50.5128 11.351C50.0794 11.351 49.7028 11.2976 49.3828 11.191C49.0628 11.0843 48.7994 10.931 48.5928 10.731C48.3928 10.531 48.2428 10.2976 48.1428 10.031C48.0428 9.76431 47.9928 9.47098 47.9928 9.15098C47.9928 8.79098 48.0594 8.43098 48.1928 8.07098C48.3328 7.70431 48.5294 7.37098 48.7828 7.07098C49.0361 6.76431 49.3394 6.52098 49.6928 6.34098C50.0528 6.15431 50.4528 6.06098 50.8928 6.06098C51.2728 6.06098 51.6061 6.12431 51.8928 6.25098C52.1795 6.37764 52.4028 6.56764 52.5628 6.82098C52.7295 7.07431 52.8128 7.38764 52.8128 7.76098C52.8128 8.04098 52.7461 8.28764 52.6128 8.50098C52.4795 8.70764 52.2928 8.87764 52.0528 9.01098C51.8195 9.14431 51.5495 9.24431 51.2428 9.31098C50.9361 9.37098 50.6061 9.40098 50.2528 9.40098C49.8928 9.40098 49.6161 9.33764 49.4228 9.21098C49.2294 9.07764 49.1328 8.92431 49.1328 8.75098C49.1328 8.65764 49.1528 8.58764 49.1928 8.54098C49.2394 8.48764 49.3161 8.46098 49.4228 8.46098C49.4961 8.46098 49.5828 8.47098 49.6828 8.49098C49.7828 8.51098 49.9194 8.52098 50.0928 8.52098C50.3128 8.52098 50.5228 8.49098 50.7228 8.43098C50.9228 8.37098 51.0861 8.29098 51.2128 8.19098C51.3395 8.08431 51.4028 7.96764 51.4028 7.84098C51.4028 7.69431 51.3661 7.58431 51.2928 7.51098C51.2194 7.43764 51.0928 7.40098 50.9128 7.40098C50.7061 7.40098 50.5161 7.45764 50.3428 7.57098C50.1695 7.67764 50.0161 7.82431 49.8828 8.01098C49.7561 8.19098 49.6561 8.39764 49.5828 8.63098C49.5161 8.86431 49.4828 9.10431 49.4828 9.35098C49.4828 9.50431 49.5094 9.63764 49.5628 9.75098C49.6228 9.86431 49.7194 9.94764 49.8528 10.001C49.9928 10.0543 50.1761 10.081 50.4028 10.081C50.7895 10.081 51.1128 10.0476 51.3728 9.98098C51.6328 9.90764 51.8495 9.82431 52.0228 9.73098C52.2028 9.63764 52.3561 9.55431 52.4828 9.48098C52.6161 9.40764 52.7461 9.37098 52.8728 9.37098C52.9994 9.37098 53.0928 9.41431 53.1528 9.50098C53.2194 9.58098 53.2528 9.70098 53.2528 9.86098C53.2528 10.0343 53.1861 10.211 53.0528 10.391C52.9195 10.571 52.7328 10.731 52.4928 10.871C52.2528 11.011 51.9628 11.1276 51.6228 11.221C51.2895 11.3076 50.9195 11.351 50.5128 11.351ZM59.2593 11.351C58.9793 11.351 58.736 11.241 58.5293 11.021C58.3293 10.7943 58.1727 10.461 58.0593 10.021C57.9527 9.57431 57.8993 9.01098 57.8993 8.33098C57.8993 8.17098 57.896 8.03764 57.8893 7.93098C57.8827 7.81764 57.866 7.72431 57.8393 7.65098C57.8127 7.57764 57.776 7.51431 57.7293 7.46098C57.6827 7.40098 57.6193 7.34764 57.5393 7.30098C57.7127 7.30098 57.856 7.31764 57.9693 7.35098C58.0827 7.37764 58.1693 7.43431 58.2293 7.52098C58.2893 7.60098 58.3093 7.73431 58.2893 7.92098C58.176 7.77431 58.0793 7.67431 57.9993 7.62098C57.9193 7.56764 57.8327 7.54098 57.7393 7.54098C57.6127 7.54098 57.466 7.61431 57.2993 7.76098C57.1393 7.90764 56.9693 8.11764 56.7893 8.39098C56.6093 8.66431 56.4327 8.99098 56.2593 9.37098C56.0927 9.75098 55.936 10.171 55.7893 10.631C55.7027 10.9043 55.606 11.091 55.4993 11.191C55.3927 11.291 55.246 11.341 55.0593 11.341C54.7327 11.341 54.496 11.191 54.3493 10.891C54.2027 10.591 54.1293 10.2076 54.1293 9.74098C54.1293 9.41431 54.1427 9.13098 54.1693 8.89098C54.2027 8.64431 54.236 8.41764 54.2693 8.21098C54.3093 7.99764 54.3427 7.78098 54.3693 7.56098C54.4027 7.34098 54.4193 7.09431 54.4193 6.82098C54.4193 6.58764 54.4727 6.41431 54.5793 6.30098C54.6927 6.18764 54.856 6.13098 55.0693 6.13098C55.2893 6.13098 55.4593 6.20098 55.5793 6.34098C55.706 6.48098 55.7693 6.70764 55.7693 7.02098C55.7693 7.21431 55.756 7.38764 55.7293 7.54098C55.7027 7.69431 55.6693 7.85764 55.6293 8.03098C55.596 8.20431 55.566 8.41431 55.5393 8.66098C55.5127 8.90764 55.5027 9.22098 55.5093 9.60098L55.1393 9.17098C55.366 8.47764 55.6327 7.90431 55.9393 7.45098C56.246 6.99098 56.5693 6.64764 56.9093 6.42098C57.256 6.18764 57.5927 6.07098 57.9193 6.07098C58.3793 6.07098 58.7193 6.21098 58.9393 6.49098C59.166 6.76431 59.2793 7.13764 59.2793 7.61098C59.2793 8.07764 59.2927 8.47431 59.3193 8.80098C59.346 9.12098 59.3927 9.38098 59.4593 9.58098C59.526 9.78098 59.616 9.93764 59.7293 10.051C59.8227 10.1443 59.8927 10.2376 59.9393 10.331C59.986 10.4243 60.0093 10.5443 60.0093 10.691C60.0093 10.8643 59.9427 11.0176 59.8093 11.151C59.6827 11.2843 59.4993 11.351 59.2593 11.351ZM61.1593 11.411C61.0126 11.411 60.8893 11.371 60.7893 11.291C60.6959 11.211 60.6393 11.0876 60.6193 10.921C60.6059 10.7543 60.6493 10.5443 60.7493 10.291C60.8493 10.0243 60.9959 9.72764 61.1893 9.40098C61.3826 9.07431 61.6193 8.73764 61.8993 8.39098C62.1793 8.03764 62.4893 7.69764 62.8293 7.37098C63.1759 7.03764 63.5426 6.73764 63.9293 6.47098C64.0759 6.37098 64.2093 6.29098 64.3293 6.23098C64.4559 6.17098 64.5726 6.12764 64.6793 6.10098C64.7926 6.07431 64.8926 6.06098 64.9793 6.06098C65.1659 6.06098 65.3226 6.12431 65.4493 6.25098C65.5826 6.37764 65.6493 6.56098 65.6493 6.80098C65.6493 6.96098 65.6093 7.09431 65.5293 7.20098C65.4493 7.30764 65.3459 7.40098 65.2193 7.48098C64.7793 7.74098 64.3693 8.04764 63.9893 8.40098C63.6093 8.75431 63.2559 9.14098 62.9293 9.56098C62.6093 9.97431 62.3059 10.3976 62.0193 10.831C61.8859 11.0443 61.7493 11.1943 61.6093 11.281C61.4693 11.3676 61.3193 11.411 61.1593 11.411ZM65.0493 11.401C64.8826 11.401 64.7259 11.361 64.5793 11.281C64.4393 11.201 64.2926 11.0476 64.1393 10.821C63.9593 10.561 63.7459 10.2843 63.4993 9.99098C63.2593 9.69764 63.0026 9.40764 62.7293 9.12098C62.4559 8.82764 62.1826 8.55098 61.9093 8.29098C61.6359 8.03098 61.3793 7.80764 61.1393 7.62098C60.9793 7.48764 60.8493 7.36098 60.7493 7.24098C60.6493 7.12098 60.5993 6.96764 60.5993 6.78098C60.5993 6.57431 60.6526 6.40431 60.7593 6.27098C60.8659 6.13098 61.0193 6.06098 61.2193 6.06098C61.3526 6.06098 61.4793 6.09098 61.5993 6.15098C61.7193 6.21098 61.8793 6.31764 62.0793 6.47098C62.2126 6.57764 62.3859 6.73764 62.5993 6.95098C62.8193 7.15764 63.0526 7.39098 63.2993 7.65098C63.5526 7.90431 63.8026 8.17098 64.0493 8.45098C64.2959 8.72431 64.5226 8.98431 64.7293 9.23098C64.9426 9.47098 65.1093 9.68098 65.2293 9.86098C65.4359 10.1476 65.5659 10.3676 65.6193 10.521C65.6793 10.6676 65.7093 10.7876 65.7093 10.881C65.7093 11.0476 65.6493 11.1743 65.5293 11.261C65.4093 11.3543 65.2493 11.401 65.0493 11.401ZM69.3993 11.351C69.0193 11.351 68.6727 11.281 68.3593 11.141C68.0527 11.001 67.8093 10.8143 67.6293 10.581C67.4493 10.3476 67.3593 10.0976 67.3593 9.83098C67.3593 9.71098 67.4027 9.60431 67.4893 9.51098C67.576 9.41764 67.6727 9.37098 67.7793 9.37098C67.886 9.37098 67.9827 9.39764 68.0693 9.45098C68.1627 9.49764 68.256 9.55431 68.3493 9.62098C68.4493 9.68764 68.5627 9.74764 68.6893 9.80098C68.8227 9.84764 68.9793 9.87098 69.1593 9.87098C69.4527 9.87098 69.6893 9.80764 69.8693 9.68098C70.0493 9.55431 70.1393 9.34098 70.1393 9.04098C70.1393 8.80764 70.0827 8.60098 69.9693 8.42098C69.856 8.23431 69.706 8.07764 69.5193 7.95098C69.3393 7.82431 69.1393 7.73098 68.9193 7.67098C68.6993 7.60431 68.486 7.57098 68.2793 7.57098C68.1927 7.57098 68.106 7.58098 68.0193 7.60098C67.9393 7.62098 67.836 7.63098 67.7093 7.63098C67.5827 7.63098 67.456 7.59764 67.3293 7.53098C67.2027 7.45764 67.0993 7.36431 67.0193 7.25098C66.9393 7.13098 66.8993 7.00098 66.8993 6.86098C66.8993 6.54764 67.0193 6.33431 67.2593 6.22098C67.4993 6.10098 67.8527 6.04098 68.3193 6.04098C68.786 6.04098 69.226 6.11431 69.6393 6.26098C70.0527 6.40098 70.416 6.61098 70.7293 6.89098C71.0427 7.16431 71.2893 7.50098 71.4693 7.90098C71.6493 8.30098 71.7393 8.75764 71.7393 9.27098C71.7393 9.52431 71.6827 9.77431 71.5693 10.021C71.4627 10.2676 71.3093 10.491 71.1093 10.691C70.9093 10.891 70.666 11.051 70.3793 11.171C70.0927 11.291 69.766 11.351 69.3993 11.351ZM67.5593 13.861C67.4327 13.861 67.306 13.8276 67.1793 13.761C67.0593 13.6943 66.956 13.591 66.8693 13.451C66.7893 13.311 66.7493 13.1343 66.7493 12.921C66.7493 12.781 66.7593 12.6543 66.7793 12.541C66.7993 12.4343 66.816 12.3243 66.8293 12.211C66.8493 12.0976 66.8693 11.971 66.8893 11.831C66.9093 11.6976 66.9193 11.531 66.9193 11.331C66.9193 10.9576 66.896 10.601 66.8493 10.261C66.8093 9.91431 66.756 9.57431 66.6893 9.24098C66.6293 8.90764 66.5693 8.57098 66.5093 8.23098C66.456 7.89098 66.4193 7.54431 66.3993 7.19098C66.3927 7.08431 66.4093 6.99431 66.4493 6.92098C66.4893 6.84764 66.5493 6.79098 66.6293 6.75098C66.7093 6.71098 66.8027 6.69098 66.9093 6.69098C67.1027 6.69098 67.2827 6.73431 67.4493 6.82098C67.6227 6.90764 67.7627 7.02098 67.8693 7.16098C67.976 7.29431 68.0293 7.44764 68.0293 7.62098C68.0293 8.00098 68.0527 8.36431 68.0993 8.71098C68.1527 9.05764 68.2093 9.39431 68.2693 9.72098C68.3293 10.041 68.3827 10.3643 68.4293 10.691C68.4827 11.0176 68.5093 11.3576 68.5093 11.711C68.5093 11.9776 68.496 12.2376 68.4693 12.491C68.4493 12.7443 68.406 12.9743 68.3393 13.181C68.2793 13.3876 68.186 13.551 68.0593 13.671C67.9393 13.7976 67.7727 13.861 67.5593 13.861ZM75.5243 11.371C74.9443 11.371 74.4309 11.2543 73.9843 11.021C73.5376 10.7876 73.1843 10.4676 72.9243 10.061C72.6709 9.64764 72.5443 9.17764 72.5443 8.65098C72.5443 8.31098 72.6176 7.98431 72.7643 7.67098C72.9109 7.35764 73.1009 7.07764 73.3343 6.83098C73.5743 6.58431 73.8376 6.39098 74.1243 6.25098C74.4109 6.10431 74.6909 6.03098 74.9643 6.03098C75.0776 6.03098 75.1843 6.05098 75.2843 6.09098C75.3909 6.12431 75.4743 6.18098 75.5343 6.26098C75.5943 6.33431 75.6243 6.43764 75.6243 6.57098C75.6243 6.81098 75.5743 7.02098 75.4743 7.20098C75.3809 7.38098 75.1843 7.52098 74.8843 7.62098C74.7376 7.68764 74.6009 7.77431 74.4743 7.88098C74.3543 7.98764 74.2576 8.11098 74.1843 8.25098C74.1109 8.39098 74.0743 8.53764 74.0743 8.69098C74.0743 9.07098 74.2009 9.37764 74.4543 9.61098C74.7076 9.84431 75.0476 9.96098 75.4743 9.96098C75.8343 9.96098 76.1276 9.84431 76.3543 9.61098C76.5809 9.37764 76.6943 9.06764 76.6943 8.68098C76.6943 8.34764 76.5976 8.08098 76.4043 7.88098C76.2109 7.67431 75.9576 7.57098 75.6443 7.57098C75.4909 7.57098 75.3609 7.61098 75.2543 7.69098C75.1543 7.77098 75.0376 7.87764 74.9043 8.01098C74.8109 8.11098 74.7276 8.19098 74.6543 8.25098C74.5809 8.31098 74.5076 8.35764 74.4343 8.39098C74.3676 8.41764 74.2809 8.43098 74.1743 8.43098C74.0543 8.43098 73.9476 8.38431 73.8543 8.29098C73.7676 8.19764 73.7243 8.02098 73.7243 7.76098C73.7243 7.57431 73.7743 7.38431 73.8743 7.19098C73.9809 6.99764 74.1176 6.82098 74.2843 6.66098C74.4576 6.50098 74.6509 6.37431 74.8643 6.28098C75.0776 6.18098 75.2909 6.13098 75.5043 6.13098C76.0709 6.13098 76.5543 6.23431 76.9543 6.44098C77.3609 6.64098 77.6709 6.92764 77.8843 7.30098C78.0976 7.67431 78.2043 8.11764 78.2043 8.63098C78.2043 9.15098 78.0843 9.61764 77.8443 10.031C77.6109 10.4443 77.2909 10.771 76.8843 11.011C76.4843 11.251 76.0309 11.371 75.5243 11.371Z" fill="#CBD5E1"/>
<path d="M1.4225 0.662432L22.4916 2.2231V15.3448L1.4225 16.9055C0.842707 16.9485 0.348633 16.4896 0.348633 15.9082L0.348633 1.6597C0.348633 1.07831 0.842707 0.619484 1.4225 0.662432Z" fill="#00944D"/>
<defs>
<linearGradient id="paint0_linear_218_107" x1="60.5759" y1="2.19071" x2="60.2402" y2="16.886" gradientUnits="userSpaceOnUse">
<stop stop-color="#64748B"/>
<stop offset="1" stop-color="#47576C"/>
</linearGradient>
</defs>
</svg>
