<svg width="98" height="18" viewBox="0 0 98 18" fill="none" xmlns="http://www.w3.org/2000/svg">
<path d="M11.4813 12.7793V4.57825H1.66304C0.908912 4.57825 0.426156 5.38121 0.779849 6.04725L4.07284 12.2483C4.24635 12.5751 4.58608 12.7793 4.95603 12.7793H11.4813Z" fill="currentColor"/>
<path fill-rule="evenodd" clip-rule="evenodd" d="M97.8885 5C97.8885 2.23858 95.6499 3.58183e-06 92.8885 3.43841e-06L26.6877 0C24.3549 -1.21159e-07 22.3953 1.59749 21.8431 3.75818H12.4812C11.9289 3.75818 11.4812 4.20589 11.4812 4.75817L11.4812 12.5995C11.4812 13.1518 11.9289 13.5995 12.4812 13.5995H21.8797C22.4778 15.6912 24.4039 17.2223 26.6877 17.2223L92.8885 17.2223C95.6499 17.2223 97.8885 14.9837 97.8885 12.2223V5Z" fill="url(#paint0_linear_218_79)"/>
<path d="M1.4225 0.662432L22.4916 2.2231V15.3448L1.4225 16.9055C0.842707 16.9485 0.348633 16.4896 0.348633 15.9082L0.348633 1.6597C0.348633 1.07831 0.842707 0.619484 1.4225 0.662432Z" fill="currentColor"/>
<defs>
<linearGradient id="paint0_linear_218_79" x1="60.5759" y1="2.19071" x2="60.2402" y2="16.886" gradientUnits="userSpaceOnUse">
<stop stop-color="#64748B"/>
<stop offset="1" stop-color="#47576C"/>
</linearGradient>
</defs>
</svg>
