<svg width="98" height="18" viewBox="0 0 98 18" fill="none" xmlns="http://www.w3.org/2000/svg">
<path d="M11.4813 12.7793V4.57825H1.66304C0.908912 4.57825 0.426156 5.38121 0.779849 6.04725L4.07284 12.2483C4.24635 12.5751 4.58608 12.7793 4.95603 12.7793H11.4813Z" fill="currentColor"/>
<path fill-rule="evenodd" clip-rule="evenodd" d="M97.8885 5C97.8885 2.23858 95.6499 3.58183e-06 92.8885 3.43841e-06L26.6877 0C24.3549 -1.21159e-07 22.3953 1.59749 21.8431 3.75818H12.4812C11.9289 3.75818 11.4812 4.20589 11.4812 4.75817L11.4812 12.5995C11.4812 13.1518 11.9289 13.5995 12.4812 13.5995H21.8797C22.4778 15.6912 24.4039 17.2223 26.6877 17.2223L92.8885 17.2223C95.6499 17.2223 97.8885 14.9837 97.8885 12.2223V5Z" fill="url(#paint0_linear_218_79)"/>
<path d="M43.9904 11.411C43.6838 11.411 43.4104 11.3176 43.1704 11.131C42.9304 10.9443 42.7271 10.6876 42.5604 10.361C42.3938 10.0343 42.2671 9.66431 42.1804 9.25098C42.0938 8.83764 42.0504 8.40098 42.0504 7.94098C42.0504 7.67431 42.0538 7.43764 42.0604 7.23098C42.0738 7.01764 42.0904 6.81764 42.1104 6.63098C42.1304 6.43764 42.1604 6.23764 42.2004 6.03098C42.2471 5.82431 42.3004 5.59098 42.3604 5.33098C42.4004 5.17098 42.4771 5.05431 42.5904 4.98098C42.7104 4.90764 42.8304 4.87098 42.9504 4.87098C43.1038 4.87098 43.2404 4.91764 43.3604 5.01098C43.4804 5.09764 43.5704 5.21098 43.6304 5.35098C43.6971 5.48431 43.7171 5.62764 43.6904 5.78098C43.6638 6.06098 43.6404 6.30431 43.6204 6.51098C43.6004 6.71764 43.5838 6.92098 43.5704 7.12098C43.5638 7.31431 43.5604 7.54764 43.5604 7.82098C43.5604 8.18764 43.5738 8.50431 43.6004 8.77098C43.6338 9.03764 43.6738 9.25431 43.7204 9.42098C43.7738 9.58764 43.8371 9.71098 43.9104 9.79098C43.9838 9.87098 44.0604 9.91098 44.1404 9.91098C44.2804 9.91098 44.4304 9.89098 44.5904 9.85098C44.7571 9.81098 44.9104 9.75764 45.0504 9.69098C45.1971 9.61764 45.3171 9.54098 45.4104 9.46098C45.5038 9.37431 45.5504 9.29431 45.5504 9.22098C45.5504 9.10098 45.5004 9.00098 45.4004 8.92098C45.3071 8.83431 45.1671 8.76431 44.9804 8.71098C44.8004 8.65098 44.5771 8.60764 44.3104 8.58098C44.0504 8.55431 43.7504 8.54431 43.4104 8.55098C43.2238 8.55764 43.0704 8.50098 42.9504 8.38098C42.8371 8.25431 42.7804 8.09098 42.7804 7.89098C42.7804 7.79098 42.8204 7.69764 42.9004 7.61098C42.9871 7.52431 43.1038 7.46431 43.2504 7.43098C43.3838 7.39764 43.5538 7.34764 43.7604 7.28098C43.9738 7.20764 44.1904 7.12764 44.4104 7.04098C44.6371 6.95431 44.8504 6.86098 45.0504 6.76098C45.2504 6.66098 45.4138 6.56431 45.5404 6.47098C45.6671 6.37098 45.7304 6.27764 45.7304 6.19098C45.7304 6.11098 45.6971 6.04431 45.6304 5.99098C45.5704 5.93098 45.4604 5.88431 45.3004 5.85098C45.1404 5.81098 44.9138 5.78431 44.6204 5.77098C44.3271 5.75098 43.9504 5.74098 43.4904 5.74098C43.2571 5.74098 43.0304 5.74764 42.8104 5.76098C42.5904 5.76764 42.4304 5.77098 42.3304 5.77098C42.1504 5.77098 42.0104 5.71764 41.9104 5.61098C41.8104 5.50431 41.7604 5.36764 41.7604 5.20098C41.7604 4.86098 41.8871 4.59764 42.1404 4.41098C42.3938 4.22431 42.8271 4.13098 43.4404 4.13098C43.9871 4.13098 44.4938 4.16431 44.9604 4.23098C45.4271 4.29764 45.8338 4.40098 46.1804 4.54098C46.5338 4.68098 46.8104 4.87098 47.0104 5.11098C47.2104 5.35098 47.3104 5.64764 47.3104 6.00098C47.3104 6.20764 47.2471 6.42764 47.1204 6.66098C47.0004 6.89431 46.7771 7.12431 46.4504 7.35098C46.1238 7.57764 45.6504 7.79431 45.0304 8.00098L44.9604 7.52098C45.3604 7.56098 45.6938 7.63431 45.9604 7.74098C46.2271 7.84764 46.4404 7.97431 46.6004 8.12098C46.7604 8.26764 46.8738 8.42431 46.9404 8.59098C47.0138 8.75764 47.0504 8.92431 47.0504 9.09098C47.0504 9.49098 46.9504 9.83764 46.7504 10.131C46.5571 10.4176 46.3038 10.6576 45.9904 10.851C45.6771 11.0443 45.3438 11.1843 44.9904 11.271C44.6438 11.3643 44.3104 11.411 43.9904 11.411ZM50.513 11.351C50.0797 11.351 49.703 11.2976 49.383 11.191C49.063 11.0843 48.7997 10.931 48.593 10.731C48.393 10.531 48.243 10.2976 48.143 10.031C48.043 9.76431 47.993 9.47098 47.993 9.15098C47.993 8.79098 48.0597 8.43098 48.193 8.07098C48.333 7.70431 48.5297 7.37098 48.783 7.07098C49.0364 6.76431 49.3397 6.52098 49.693 6.34098C50.053 6.15431 50.453 6.06098 50.893 6.06098C51.273 6.06098 51.6064 6.12431 51.893 6.25098C52.1797 6.37764 52.403 6.56764 52.563 6.82098C52.7297 7.07431 52.813 7.38764 52.813 7.76098C52.813 8.04098 52.7464 8.28764 52.613 8.50098C52.4797 8.70764 52.293 8.87764 52.053 9.01098C51.8197 9.14431 51.5497 9.24431 51.243 9.31098C50.9364 9.37098 50.6064 9.40098 50.253 9.40098C49.893 9.40098 49.6164 9.33764 49.423 9.21098C49.2297 9.07764 49.133 8.92431 49.133 8.75098C49.133 8.65764 49.153 8.58764 49.193 8.54098C49.2397 8.48764 49.3164 8.46098 49.423 8.46098C49.4964 8.46098 49.583 8.47098 49.683 8.49098C49.783 8.51098 49.9197 8.52098 50.093 8.52098C50.313 8.52098 50.523 8.49098 50.723 8.43098C50.923 8.37098 51.0864 8.29098 51.213 8.19098C51.3397 8.08431 51.403 7.96764 51.403 7.84098C51.403 7.69431 51.3664 7.58431 51.293 7.51098C51.2197 7.43764 51.093 7.40098 50.913 7.40098C50.7064 7.40098 50.5164 7.45764 50.343 7.57098C50.1697 7.67764 50.0164 7.82431 49.883 8.01098C49.7564 8.19098 49.6564 8.39764 49.583 8.63098C49.5164 8.86431 49.483 9.10431 49.483 9.35098C49.483 9.50431 49.5097 9.63764 49.563 9.75098C49.623 9.86431 49.7197 9.94764 49.853 10.001C49.993 10.0543 50.1764 10.081 50.403 10.081C50.7897 10.081 51.113 10.0476 51.373 9.98098C51.633 9.90764 51.8497 9.82431 52.023 9.73098C52.203 9.63764 52.3564 9.55431 52.483 9.48098C52.6164 9.40764 52.7464 9.37098 52.873 9.37098C52.9997 9.37098 53.093 9.41431 53.153 9.50098C53.2197 9.58098 53.253 9.70098 53.253 9.86098C53.253 10.0343 53.1864 10.211 53.053 10.391C52.9197 10.571 52.733 10.731 52.493 10.871C52.253 11.011 51.963 11.1276 51.623 11.221C51.2897 11.3076 50.9197 11.351 50.513 11.351ZM59.2596 11.351C58.9796 11.351 58.7363 11.241 58.5296 11.021C58.3296 10.7943 58.1729 10.461 58.0596 10.021C57.9529 9.57431 57.8996 9.01098 57.8996 8.33098C57.8996 8.17098 57.8963 8.03764 57.8896 7.93098C57.8829 7.81764 57.8663 7.72431 57.8396 7.65098C57.8129 7.57764 57.7763 7.51431 57.7296 7.46098C57.6829 7.40098 57.6196 7.34764 57.5396 7.30098C57.7129 7.30098 57.8563 7.31764 57.9696 7.35098C58.0829 7.37764 58.1696 7.43431 58.2296 7.52098C58.2896 7.60098 58.3096 7.73431 58.2896 7.92098C58.1763 7.77431 58.0796 7.67431 57.9996 7.62098C57.9196 7.56764 57.8329 7.54098 57.7396 7.54098C57.6129 7.54098 57.4663 7.61431 57.2996 7.76098C57.1396 7.90764 56.9696 8.11764 56.7896 8.39098C56.6096 8.66431 56.4329 8.99098 56.2596 9.37098C56.0929 9.75098 55.9363 10.171 55.7896 10.631C55.7029 10.9043 55.6063 11.091 55.4996 11.191C55.3929 11.291 55.2463 11.341 55.0596 11.341C54.7329 11.341 54.4963 11.191 54.3496 10.891C54.2029 10.591 54.1296 10.2076 54.1296 9.74098C54.1296 9.41431 54.1429 9.13098 54.1696 8.89098C54.2029 8.64431 54.2363 8.41764 54.2696 8.21098C54.3096 7.99764 54.3429 7.78098 54.3696 7.56098C54.4029 7.34098 54.4196 7.09431 54.4196 6.82098C54.4196 6.58764 54.4729 6.41431 54.5796 6.30098C54.6929 6.18764 54.8563 6.13098 55.0696 6.13098C55.2896 6.13098 55.4596 6.20098 55.5796 6.34098C55.7063 6.48098 55.7696 6.70764 55.7696 7.02098C55.7696 7.21431 55.7563 7.38764 55.7296 7.54098C55.7029 7.69431 55.6696 7.85764 55.6296 8.03098C55.5963 8.20431 55.5663 8.41431 55.5396 8.66098C55.5129 8.90764 55.5029 9.22098 55.5096 9.60098L55.1396 9.17098C55.3663 8.47764 55.6329 7.90431 55.9396 7.45098C56.2463 6.99098 56.5696 6.64764 56.9096 6.42098C57.2563 6.18764 57.5929 6.07098 57.9196 6.07098C58.3796 6.07098 58.7196 6.21098 58.9396 6.49098C59.1663 6.76431 59.2796 7.13764 59.2796 7.61098C59.2796 8.07764 59.2929 8.47431 59.3196 8.80098C59.3463 9.12098 59.3929 9.38098 59.4596 9.58098C59.5263 9.78098 59.6163 9.93764 59.7296 10.051C59.8229 10.1443 59.8929 10.2376 59.9396 10.331C59.9863 10.4243 60.0096 10.5443 60.0096 10.691C60.0096 10.8643 59.9429 11.0176 59.8096 11.151C59.6829 11.2843 59.4996 11.351 59.2596 11.351ZM61.1595 11.411C61.0128 11.411 60.8895 11.371 60.7895 11.291C60.6962 11.211 60.6395 11.0876 60.6195 10.921C60.6062 10.7543 60.6495 10.5443 60.7495 10.291C60.8495 10.0243 60.9962 9.72764 61.1895 9.40098C61.3828 9.07431 61.6195 8.73764 61.8995 8.39098C62.1795 8.03764 62.4895 7.69764 62.8295 7.37098C63.1762 7.03764 63.5428 6.73764 63.9295 6.47098C64.0762 6.37098 64.2095 6.29098 64.3295 6.23098C64.4562 6.17098 64.5728 6.12764 64.6795 6.10098C64.7928 6.07431 64.8928 6.06098 64.9795 6.06098C65.1662 6.06098 65.3228 6.12431 65.4495 6.25098C65.5828 6.37764 65.6495 6.56098 65.6495 6.80098C65.6495 6.96098 65.6095 7.09431 65.5295 7.20098C65.4495 7.30764 65.3462 7.40098 65.2195 7.48098C64.7795 7.74098 64.3695 8.04764 63.9895 8.40098C63.6095 8.75431 63.2562 9.14098 62.9295 9.56098C62.6095 9.97431 62.3062 10.3976 62.0195 10.831C61.8862 11.0443 61.7495 11.1943 61.6095 11.281C61.4695 11.3676 61.3195 11.411 61.1595 11.411ZM65.0495 11.401C64.8828 11.401 64.7262 11.361 64.5795 11.281C64.4395 11.201 64.2928 11.0476 64.1395 10.821C63.9595 10.561 63.7462 10.2843 63.4995 9.99098C63.2595 9.69764 63.0028 9.40764 62.7295 9.12098C62.4562 8.82764 62.1828 8.55098 61.9095 8.29098C61.6362 8.03098 61.3795 7.80764 61.1395 7.62098C60.9795 7.48764 60.8495 7.36098 60.7495 7.24098C60.6495 7.12098 60.5995 6.96764 60.5995 6.78098C60.5995 6.57431 60.6528 6.40431 60.7595 6.27098C60.8662 6.13098 61.0195 6.06098 61.2195 6.06098C61.3528 6.06098 61.4795 6.09098 61.5995 6.15098C61.7195 6.21098 61.8795 6.31764 62.0795 6.47098C62.2128 6.57764 62.3862 6.73764 62.5995 6.95098C62.8195 7.15764 63.0528 7.39098 63.2995 7.65098C63.5528 7.90431 63.8028 8.17098 64.0495 8.45098C64.2962 8.72431 64.5228 8.98431 64.7295 9.23098C64.9428 9.47098 65.1095 9.68098 65.2295 9.86098C65.4362 10.1476 65.5662 10.3676 65.6195 10.521C65.6795 10.6676 65.7095 10.7876 65.7095 10.881C65.7095 11.0476 65.6495 11.1743 65.5295 11.261C65.4095 11.3543 65.2495 11.401 65.0495 11.401ZM69.3996 11.351C69.0196 11.351 68.6729 11.281 68.3596 11.141C68.0529 11.001 67.8096 10.8143 67.6296 10.581C67.4496 10.3476 67.3596 10.0976 67.3596 9.83098C67.3596 9.71098 67.4029 9.60431 67.4896 9.51098C67.5763 9.41764 67.6729 9.37098 67.7796 9.37098C67.8863 9.37098 67.9829 9.39764 68.0696 9.45098C68.1629 9.49764 68.2563 9.55431 68.3496 9.62098C68.4496 9.68764 68.5629 9.74764 68.6896 9.80098C68.8229 9.84764 68.9796 9.87098 69.1596 9.87098C69.4529 9.87098 69.6896 9.80764 69.8696 9.68098C70.0496 9.55431 70.1396 9.34098 70.1396 9.04098C70.1396 8.80764 70.0829 8.60098 69.9696 8.42098C69.8563 8.23431 69.7063 8.07764 69.5196 7.95098C69.3396 7.82431 69.1396 7.73098 68.9196 7.67098C68.6996 7.60431 68.4863 7.57098 68.2796 7.57098C68.1929 7.57098 68.1063 7.58098 68.0196 7.60098C67.9396 7.62098 67.8363 7.63098 67.7096 7.63098C67.5829 7.63098 67.4563 7.59764 67.3296 7.53098C67.2029 7.45764 67.0996 7.36431 67.0196 7.25098C66.9396 7.13098 66.8996 7.00098 66.8996 6.86098C66.8996 6.54764 67.0196 6.33431 67.2596 6.22098C67.4996 6.10098 67.8529 6.04098 68.3196 6.04098C68.7863 6.04098 69.2263 6.11431 69.6396 6.26098C70.0529 6.40098 70.4163 6.61098 70.7296 6.89098C71.0429 7.16431 71.2896 7.50098 71.4696 7.90098C71.6496 8.30098 71.7396 8.75764 71.7396 9.27098C71.7396 9.52431 71.6829 9.77431 71.5696 10.021C71.4629 10.2676 71.3096 10.491 71.1096 10.691C70.9096 10.891 70.6663 11.051 70.3796 11.171C70.0929 11.291 69.7663 11.351 69.3996 11.351ZM67.5596 13.861C67.4329 13.861 67.3063 13.8276 67.1796 13.761C67.0596 13.6943 66.9563 13.591 66.8696 13.451C66.7896 13.311 66.7496 13.1343 66.7496 12.921C66.7496 12.781 66.7596 12.6543 66.7796 12.541C66.7996 12.4343 66.8163 12.3243 66.8296 12.211C66.8496 12.0976 66.8696 11.971 66.8896 11.831C66.9096 11.6976 66.9196 11.531 66.9196 11.331C66.9196 10.9576 66.8963 10.601 66.8496 10.261C66.8096 9.91431 66.7563 9.57431 66.6896 9.24098C66.6296 8.90764 66.5696 8.57098 66.5096 8.23098C66.4563 7.89098 66.4196 7.54431 66.3996 7.19098C66.3929 7.08431 66.4096 6.99431 66.4496 6.92098C66.4896 6.84764 66.5496 6.79098 66.6296 6.75098C66.7096 6.71098 66.8029 6.69098 66.9096 6.69098C67.1029 6.69098 67.2829 6.73431 67.4496 6.82098C67.6229 6.90764 67.7629 7.02098 67.8696 7.16098C67.9763 7.29431 68.0296 7.44764 68.0296 7.62098C68.0296 8.00098 68.0529 8.36431 68.0996 8.71098C68.1529 9.05764 68.2096 9.39431 68.2696 9.72098C68.3296 10.041 68.3829 10.3643 68.4296 10.691C68.4829 11.0176 68.5096 11.3576 68.5096 11.711C68.5096 11.9776 68.4963 12.2376 68.4696 12.491C68.4496 12.7443 68.4063 12.9743 68.3396 13.181C68.2796 13.3876 68.1863 13.551 68.0596 13.671C67.9396 13.7976 67.7729 13.861 67.5596 13.861ZM75.5245 11.371C74.9445 11.371 74.4312 11.2543 73.9845 11.021C73.5378 10.7876 73.1845 10.4676 72.9245 10.061C72.6712 9.64764 72.5445 9.17764 72.5445 8.65098C72.5445 8.31098 72.6178 7.98431 72.7645 7.67098C72.9112 7.35764 73.1012 7.07764 73.3345 6.83098C73.5745 6.58431 73.8378 6.39098 74.1245 6.25098C74.4112 6.10431 74.6912 6.03098 74.9645 6.03098C75.0778 6.03098 75.1845 6.05098 75.2845 6.09098C75.3912 6.12431 75.4745 6.18098 75.5345 6.26098C75.5945 6.33431 75.6245 6.43764 75.6245 6.57098C75.6245 6.81098 75.5745 7.02098 75.4745 7.20098C75.3812 7.38098 75.1845 7.52098 74.8845 7.62098C74.7378 7.68764 74.6012 7.77431 74.4745 7.88098C74.3545 7.98764 74.2578 8.11098 74.1845 8.25098C74.1112 8.39098 74.0745 8.53764 74.0745 8.69098C74.0745 9.07098 74.2012 9.37764 74.4545 9.61098C74.7078 9.84431 75.0478 9.96098 75.4745 9.96098C75.8345 9.96098 76.1278 9.84431 76.3545 9.61098C76.5812 9.37764 76.6945 9.06764 76.6945 8.68098C76.6945 8.34764 76.5978 8.08098 76.4045 7.88098C76.2112 7.67431 75.9578 7.57098 75.6445 7.57098C75.4912 7.57098 75.3612 7.61098 75.2545 7.69098C75.1545 7.77098 75.0378 7.87764 74.9045 8.01098C74.8112 8.11098 74.7278 8.19098 74.6545 8.25098C74.5812 8.31098 74.5078 8.35764 74.4345 8.39098C74.3678 8.41764 74.2812 8.43098 74.1745 8.43098C74.0545 8.43098 73.9478 8.38431 73.8545 8.29098C73.7678 8.19764 73.7245 8.02098 73.7245 7.76098C73.7245 7.57431 73.7745 7.38431 73.8745 7.19098C73.9812 6.99764 74.1178 6.82098 74.2845 6.66098C74.4578 6.50098 74.6512 6.37431 74.8645 6.28098C75.0778 6.18098 75.2912 6.13098 75.5045 6.13098C76.0712 6.13098 76.5545 6.23431 76.9545 6.44098C77.3612 6.64098 77.6712 6.92764 77.8845 7.30098C78.0978 7.67431 78.2045 8.11764 78.2045 8.63098C78.2045 9.15098 78.0845 9.61764 77.8445 10.031C77.6112 10.4443 77.2912 10.771 76.8845 11.011C76.4845 11.251 76.0312 11.371 75.5245 11.371Z" fill="#CBD5E1"/>
<path d="M1.4225 0.662432L22.4916 2.2231V15.3448L1.4225 16.9055C0.842707 16.9485 0.348633 16.4896 0.348633 15.9082L0.348633 1.6597C0.348633 1.07831 0.842707 0.619484 1.4225 0.662432Z" fill="currentColor"/>
<defs>
<linearGradient id="paint0_linear_218_79" x1="60.5759" y1="2.19071" x2="60.2402" y2="16.886" gradientUnits="userSpaceOnUse">
<stop stop-color="#64748B"/>
<stop offset="1" stop-color="#47576C"/>
</linearGradient>
</defs>
</svg>
