<svg width="460" height="429" viewBox="0 0 460 429" fill="none" xmlns="http://www.w3.org/2000/svg">
<path d="M230 0C142.277 -6.45023e-05 73.9176 6.78027 27.2371 16.7898C19.8657 18.3704 14.4692 24.5512 13.7066 32.0515C8.80811 80.2261 0.5 182.352 0.5 273.5C0.5 305.328 2.5095 383.375 5.80798 418.279C6.36643 424.188 11.3889 428.5 17.3246 428.5H224.474H235.527H442.675C448.611 428.5 453.634 424.188 454.192 418.279C457.491 383.375 459.5 305.328 459.5 273.5C459.5 182.352 451.192 80.2261 446.294 32.0515C445.531 24.5512 440.134 18.3704 432.763 16.7898C386.082 6.78027 317.723 -6.45023e-05 230 0Z" fill="url(#paint0_linear_164_142)"/>
<path d="M230 0C142.277 -6.45023e-05 73.9176 6.78027 27.2371 16.7898C19.8657 18.3704 14.4692 24.5512 13.7066 32.0515C8.80811 80.2261 0.5 182.352 0.5 273.5C0.5 305.328 2.5095 383.375 5.80798 418.279C6.36643 424.188 11.3889 428.5 17.3246 428.5H224.474H235.527H442.675C448.611 428.5 453.634 424.188 454.192 418.279C457.491 383.375 459.5 305.328 459.5 273.5C459.5 182.352 451.192 80.2261 446.294 32.0515C445.531 24.5512 440.134 18.3704 432.763 16.7898C386.082 6.78027 317.723 -6.45023e-05 230 0Z" fill="url(#paint1_linear_164_142)"/>
<path d="M27.2371 16.7898C73.9176 6.78027 142.277 -6.45014e-05 230 4.60204e-10C317.723 -6.45014e-05 386.082 6.78027 432.763 16.7898C440.134 18.3704 445.531 24.5512 446.294 32.0515C451.192 80.2261 459.5 182.352 459.5 273.5C459.5 291.369 458.867 323.808 457.727 355H2.27274C1.13342 323.808 0.5 291.369 0.5 273.5C0.5 182.352 8.80811 80.2261 13.7066 32.0515C14.4692 24.5512 19.8657 18.3704 27.2371 16.7898Z" fill="url(#paint2_linear_164_142)"/>
<path d="M30 15.5C76.3754 5.49048 144.85 -6.45014e-05 232 4.60204e-10C319.15 -6.45014e-05 387.062 6.78027 433.438 16.7898C440.761 18.3704 446.122 24.5512 446.88 32.0515C451.746 80.2261 460 182.352 460 273.5C460 291.369 459.371 323.808 458.239 355H5.76116C4.62928 323.808 4 291.369 4 273.5C4 182.352 12.2538 80.2261 17.1203 32.0515C17.8779 24.5512 17.1203 18.2799 30 15.5Z" fill="#334155"/>
<path d="M30 15.5C76.3754 5.49048 144.85 -6.45014e-05 232 4.60204e-10C319.15 -6.45014e-05 387.062 6.78027 433.438 16.7898C440.761 18.3704 446.122 24.5512 446.88 32.0515C451.746 80.2261 460 182.352 460 273.5C460 291.369 459.371 323.808 458.239 355H5.76116C4.62928 323.808 4 291.369 4 273.5C4 182.352 12.2538 80.2261 17.1203 32.0515C17.8779 24.5512 17.1203 18.2799 30 15.5Z" fill="url(#paint3_linear_164_142)" fill-opacity="0.5"/>
<path d="M30 15.5C76.3754 5.49048 144.85 -6.45014e-05 232 4.60204e-10C319.15 -6.45014e-05 387.062 6.78027 433.438 16.7898C440.761 18.3704 446.122 24.5512 446.88 32.0515C451.746 80.2261 460 182.352 460 273.5C460 291.369 459.371 323.808 458.239 355H5.76116C4.62928 323.808 4 291.369 4 273.5C4 182.352 12.2538 80.2261 17.1203 32.0515C17.8779 24.5512 17.1203 18.2799 30 15.5Z" fill="url(#paint4_linear_164_142)" fill-opacity="0.5"/>
<path d="M30 15.5C76.3754 5.49048 144.85 -6.45014e-05 232 4.60204e-10C319.15 -6.45014e-05 387.062 6.78027 433.438 16.7898C440.761 18.3704 446.122 24.5512 446.88 32.0515C451.746 80.2261 460 182.352 460 273.5C460 291.369 459.371 323.808 458.239 355H5.76116C4.62928 323.808 4 291.369 4 273.5C4 182.352 12.2538 80.2261 17.1203 32.0515C17.8779 24.5512 17.1203 18.2799 30 15.5Z" fill="url(#paint5_linear_164_142)" fill-opacity="0.5"/>
<path d="M30 15.5C76.3754 5.49048 144.85 -6.45014e-05 232 4.60204e-10C319.15 -6.45014e-05 387.062 6.78027 433.438 16.7898C440.761 18.3704 446.122 24.5512 446.88 32.0515C451.746 80.2261 460 182.352 460 273.5C460 291.369 459.371 323.808 458.239 355H5.76116C4.62928 323.808 4 291.369 4 273.5C4 182.352 12.2538 80.2261 17.1203 32.0515C17.8779 24.5512 17.1203 18.2799 30 15.5Z" fill="url(#paint6_linear_164_142)" fill-opacity="0.5"/>
<path d="M30 15.5C76.3754 5.49048 144.85 -6.45014e-05 232 4.60204e-10C319.15 -6.45014e-05 387.062 6.78027 433.438 16.7898C440.761 18.3704 446.122 24.5512 446.88 32.0515C451.746 80.2261 460 182.352 460 273.5C460 291.369 459.371 323.808 458.239 355H5.76116C4.62928 323.808 4 291.369 4 273.5C4 182.352 12.2538 80.2261 17.1203 32.0515C17.8779 24.5512 17.1203 18.2799 30 15.5Z" fill="url(#paint7_linear_164_142)" fill-opacity="0.7"/>
<path d="M30 15.5C76.3754 5.49048 144.85 -6.45014e-05 232 4.60204e-10C319.15 -6.45014e-05 387.062 6.78027 433.438 16.7898C440.761 18.3704 446.122 24.5512 446.88 32.0515C451.746 80.2261 460 182.352 460 273.5C460 291.369 459.371 323.808 458.239 355H5.76116C4.62928 323.808 4 291.369 4 273.5C4 182.352 12.2538 80.2261 17.1203 32.0515C17.8779 24.5512 17.1203 18.2799 30 15.5Z" fill="url(#paint8_linear_164_142)" fill-opacity="0.5"/>
<path d="M211.072 341.066C210.955 341.066 210.852 341.044 210.764 341C210.691 340.956 210.654 340.89 210.654 340.802C210.654 340.685 210.698 340.604 210.786 340.56C210.889 340.501 210.999 340.457 211.116 340.428C211.454 340.34 211.703 340.245 211.864 340.142C212.026 340.039 212.106 339.856 212.106 339.592V334.84C212.106 334.4 212.033 334.048 211.886 333.784C211.74 333.505 211.483 333.337 211.116 333.278C211.043 333.263 210.984 333.234 210.94 333.19C210.911 333.131 210.896 333.051 210.896 332.948C210.896 332.772 210.962 332.677 211.094 332.662C211.74 332.515 212.29 332.325 212.744 332.09C213.214 331.841 213.566 331.643 213.8 331.496C213.962 331.393 214.079 331.342 214.152 331.342C214.27 331.342 214.328 331.401 214.328 331.518C214.328 331.679 214.306 331.936 214.262 332.288C214.233 332.64 214.196 333.021 214.152 333.432C214.123 333.843 214.108 334.224 214.108 334.576V339.592C214.108 339.827 214.189 340.003 214.35 340.12C214.512 340.237 214.761 340.34 215.098 340.428C215.216 340.457 215.318 340.501 215.406 340.56C215.509 340.604 215.56 340.685 215.56 340.802C215.56 340.978 215.428 341.066 215.164 341.066C214.886 341.066 214.636 341.051 214.416 341.022C214.196 341.007 213.984 340.993 213.778 340.978C213.588 340.963 213.36 340.956 213.096 340.956C212.847 340.956 212.62 340.963 212.414 340.978C212.209 340.993 212.004 341.007 211.798 341.022C211.608 341.051 211.366 341.066 211.072 341.066ZM213.052 329.824C212.686 329.824 212.37 329.699 212.106 329.45C211.857 329.186 211.732 328.871 211.732 328.504C211.732 328.123 211.857 327.807 212.106 327.558C212.37 327.294 212.686 327.162 213.052 327.162C213.434 327.162 213.756 327.294 214.02 327.558C214.284 327.807 214.416 328.123 214.416 328.504C214.416 328.871 214.284 329.186 214.02 329.45C213.756 329.699 213.434 329.824 213.052 329.824ZM216.896 341.11C216.72 341.11 216.58 341.088 216.478 341.044C216.375 341 216.324 340.934 216.324 340.846C216.324 340.655 216.536 340.516 216.962 340.428C217.504 340.311 217.908 340.149 218.172 339.944C218.436 339.724 218.568 339.357 218.568 338.844V328.9C218.568 328.401 218.465 328.035 218.26 327.8C218.054 327.565 217.68 327.411 217.138 327.338C216.918 327.309 216.756 327.257 216.654 327.184C216.551 327.096 216.5 327.001 216.5 326.898C216.5 326.81 216.551 326.744 216.654 326.7C216.756 326.641 216.896 326.612 217.072 326.612C217.497 326.612 217.834 326.619 218.084 326.634C218.333 326.649 218.568 326.663 218.788 326.678C219.022 326.678 219.294 326.678 219.602 326.678C219.91 326.678 220.174 326.671 220.394 326.656C220.628 326.627 220.885 326.605 221.164 326.59C221.457 326.561 221.831 326.546 222.286 326.546C224.016 326.546 225.314 326.795 226.18 327.294C227.045 327.778 227.478 328.621 227.478 329.824C227.478 330.308 227.382 330.741 227.192 331.122C227.016 331.503 226.818 331.797 226.598 332.002C226.363 332.222 226.136 332.398 225.916 332.53C225.71 332.662 225.432 332.787 225.08 332.904C225.021 332.919 224.992 332.955 224.992 333.014C224.992 333.058 225.021 333.095 225.08 333.124C225.432 333.227 225.791 333.359 226.158 333.52C226.539 333.667 226.898 333.872 227.236 334.136C227.573 334.385 227.837 334.723 228.028 335.148C228.233 335.559 228.336 336.087 228.336 336.732C228.336 337.539 228.204 338.184 227.94 338.668C227.69 339.137 227.39 339.497 227.038 339.746C226.686 339.995 226.356 340.201 226.048 340.362C225.578 340.597 225.043 340.78 224.442 340.912C223.84 341.029 223.114 341.088 222.264 341.088C221.97 341.088 221.611 341.073 221.186 341.044C220.775 341.015 220.328 341 219.844 341C219.492 341 219.162 341.007 218.854 341.022C218.56 341.037 218.26 341.051 217.952 341.066C217.644 341.095 217.292 341.11 216.896 341.11ZM222.462 340.076C223.048 340.076 223.584 339.937 224.068 339.658C224.566 339.379 224.962 338.998 225.256 338.514C225.564 338.015 225.718 337.465 225.718 336.864C225.718 336.307 225.63 335.852 225.454 335.5C225.292 335.133 225.102 334.84 224.882 334.62C224.662 334.4 224.464 334.239 224.288 334.136C224.112 334.019 223.84 333.901 223.474 333.784C223.107 333.667 222.63 333.608 222.044 333.608C221.662 333.608 221.369 333.689 221.164 333.85C220.973 334.011 220.878 334.187 220.878 334.378V338.58C220.878 339.137 221.017 339.526 221.296 339.746C221.574 339.966 221.963 340.076 222.462 340.076ZM221.846 332.86C222.227 332.86 222.616 332.816 223.012 332.728C223.422 332.64 223.826 332.471 224.222 332.222C224.368 332.134 224.552 331.929 224.772 331.606C224.992 331.269 225.102 330.792 225.102 330.176C225.102 329.677 225.021 329.215 224.86 328.79C224.713 328.35 224.427 327.998 224.002 327.734C223.591 327.455 222.997 327.316 222.22 327.316C221.692 327.316 221.332 327.397 221.142 327.558C220.966 327.719 220.878 327.961 220.878 328.284V332.046C220.878 332.398 220.995 332.625 221.23 332.728C221.464 332.816 221.67 332.86 221.846 332.86ZM233.805 341.33C233.013 341.33 232.309 341.132 231.693 340.736C231.091 340.325 230.615 339.761 230.263 339.042C229.911 338.309 229.735 337.465 229.735 336.512C229.735 335.647 229.933 334.855 230.329 334.136C230.739 333.417 231.282 332.845 231.957 332.42C232.631 331.98 233.372 331.76 234.179 331.76C234.78 331.76 235.315 331.885 235.785 332.134C236.269 332.369 236.643 332.706 236.907 333.146C237.185 333.571 237.325 334.063 237.325 334.62C237.325 335.104 237.097 335.346 236.643 335.346H232.089C231.883 335.346 231.737 335.405 231.649 335.522C231.561 335.639 231.517 335.852 231.517 336.16C231.517 336.805 231.663 337.399 231.957 337.942C232.25 338.47 232.639 338.895 233.123 339.218C233.607 339.541 234.142 339.702 234.729 339.702C235.169 339.702 235.565 339.621 235.917 339.46C236.283 339.284 236.621 339.042 236.929 338.734C236.973 338.675 237.009 338.631 237.039 338.602C237.083 338.573 237.127 338.558 237.171 338.558C237.303 338.558 237.369 338.639 237.369 338.8C237.369 339.035 237.266 339.313 237.061 339.636C236.855 339.944 236.591 340.23 236.269 340.494C235.961 340.743 235.594 340.941 235.169 341.088C234.758 341.249 234.303 341.33 233.805 341.33ZM232.111 334.598H233.871C234.252 334.598 234.553 334.591 234.773 334.576C234.993 334.561 235.198 334.532 235.389 334.488C235.462 334.459 235.513 334.4 235.543 334.312C235.572 334.209 235.587 334.085 235.587 333.938C235.587 333.527 235.418 333.183 235.081 332.904C234.743 332.611 234.34 332.464 233.871 332.464C233.548 332.464 233.225 332.559 232.903 332.75C232.595 332.941 232.338 333.183 232.133 333.476C231.927 333.755 231.832 334.041 231.847 334.334C231.847 334.51 231.935 334.598 232.111 334.598ZM238.895 341.066C238.778 341.066 238.675 341.044 238.587 341C238.499 340.956 238.455 340.89 238.455 340.802C238.455 340.685 238.499 340.604 238.587 340.56C238.69 340.501 238.815 340.45 238.961 340.406C239.181 340.347 239.387 340.267 239.577 340.164C239.768 340.061 239.863 339.863 239.863 339.57V334.73C239.863 334.363 239.819 334.055 239.731 333.806C239.658 333.542 239.445 333.366 239.093 333.278C239.035 333.263 238.983 333.234 238.939 333.19C238.895 333.131 238.873 333.058 238.873 332.97C238.873 332.779 238.939 332.677 239.071 332.662C239.585 332.53 240.047 332.369 240.457 332.178C240.883 331.987 241.271 331.775 241.623 331.54C241.667 331.511 241.711 331.481 241.755 331.452C241.814 331.423 241.865 331.408 241.909 331.408C241.968 331.408 242.005 331.43 242.019 331.474C242.049 331.503 242.063 331.547 242.063 331.606C242.063 331.709 242.041 331.907 241.997 332.2C241.968 332.493 241.953 332.743 241.953 332.948C241.953 333.007 241.953 333.065 241.953 333.124C241.968 333.183 241.983 333.219 241.997 333.234C242.511 332.75 243.039 332.383 243.581 332.134C244.139 331.885 244.762 331.76 245.451 331.76C246.185 331.76 246.793 332.046 247.277 332.618C247.761 333.19 248.003 333.931 248.003 334.84V339.592C248.003 339.885 248.099 340.076 248.289 340.164C248.495 340.252 248.707 340.333 248.927 340.406C249.045 340.45 249.155 340.501 249.257 340.56C249.36 340.619 249.411 340.707 249.411 340.824C249.411 340.927 249.36 340.993 249.257 341.022C249.169 341.051 249.081 341.066 248.993 341.066C248.7 341.066 248.451 341.051 248.245 341.022C248.055 341.007 247.864 340.993 247.673 340.978C247.497 340.963 247.277 340.956 247.013 340.956C246.764 340.956 246.544 340.963 246.353 340.978C246.163 340.993 245.965 341.007 245.759 341.022C245.569 341.051 245.327 341.066 245.033 341.066C244.96 341.066 244.872 341.051 244.769 341.022C244.667 340.993 244.615 340.927 244.615 340.824C244.615 340.707 244.667 340.619 244.769 340.56C244.872 340.501 244.982 340.45 245.099 340.406C245.319 340.333 245.525 340.252 245.715 340.164C245.906 340.076 246.001 339.885 246.001 339.592V335.038C246.001 334.422 245.833 333.945 245.495 333.608C245.173 333.271 244.747 333.095 244.219 333.08C243.765 333.08 243.361 333.153 243.009 333.3C242.672 333.432 242.357 333.615 242.063 333.85C242.005 333.909 241.961 333.982 241.931 334.07C241.902 334.158 241.887 334.239 241.887 334.312V339.592C241.887 339.885 241.983 340.083 242.173 340.186C242.364 340.274 242.562 340.347 242.767 340.406C243.09 340.509 243.251 340.641 243.251 340.802C243.251 340.89 243.215 340.956 243.141 341C243.068 341.044 242.965 341.066 242.833 341.066C242.54 341.066 242.291 341.051 242.085 341.022C241.895 341.007 241.711 340.993 241.535 340.978C241.374 340.963 241.161 340.956 240.897 340.956C240.648 340.956 240.428 340.963 240.237 340.978C240.047 340.993 239.849 341.007 239.643 341.022C239.438 341.051 239.189 341.066 238.895 341.066Z" fill="#E2E8F0"/>
<g filter="url(#filter0_i_164_142)">
<rect x="22" y="364" width="108" height="54" rx="14" fill="#1F2937"/>
</g>
<g filter="url(#filter1_i_164_142)">
<rect x="24.582" y="366" width="102.836" height="48" rx="12" fill="url(#paint9_linear_164_142)"/>
</g>
<rect x="25.6367" y="366" width="100.726" height="44" rx="10" fill="url(#paint10_linear_164_142)"/>
<path fill-rule="evenodd" clip-rule="evenodd" d="M68 378.626C68 376.63 70.2 375.368 71.9985 376.328L88.6025 385.203C90.4658 386.198 90.4658 388.8 88.6025 389.797L71.9999 398.672C70.2014 399.633 68.0014 398.369 68.0014 396.375L68 378.626Z" fill="#182B44"/>
<g filter="url(#filter2_i_164_142)">
<rect x="329" y="366" width="108" height="54" rx="14" fill="#1F2937"/>
</g>
<g filter="url(#filter3_i_164_142)">
<rect x="331.582" y="368" width="102.836" height="48" rx="12" fill="url(#paint11_linear_164_142)"/>
</g>
<rect x="332.637" y="368" width="100.726" height="44" rx="10" fill="url(#paint12_linear_164_142)"/>
<path d="M381.413 372.502C381.896 372.223 382.443 372.076 383 372.076C383.557 372.076 384.104 372.223 384.586 372.502L396.461 379.377C396.942 379.655 397.341 380.054 397.618 380.535C397.896 381.016 398.042 381.562 398.042 382.117V395.883C398.041 396.438 397.895 396.983 397.618 397.464C397.341 397.944 396.942 398.344 396.461 398.622L384.586 405.498C384.104 405.777 383.557 405.924 383 405.924C382.443 405.924 381.896 405.777 381.413 405.498L369.538 398.624C369.058 398.345 368.659 397.946 368.382 397.465C368.104 396.984 367.958 396.438 367.958 395.883V382.117C367.959 381.562 368.105 381.017 368.382 380.536C368.659 380.056 369.058 379.656 369.538 379.378L381.413 372.502ZM371.125 382.117V382.125L381.42 388.085C381.9 388.363 382.299 388.763 382.577 389.244C382.854 389.725 383 390.27 383 390.826V402.758L394.875 395.883V382.117L383 375.242L371.125 382.117ZM373.709 389.475C373.709 388.601 373.095 387.537 372.338 387.1C371.581 386.663 370.967 387.018 370.967 387.892C370.967 388.766 371.581 389.83 372.338 390.267C373.095 390.704 373.709 390.349 373.709 389.475ZM377.821 399.764C378.578 400.201 379.192 399.847 379.192 398.972C379.192 398.098 378.578 397.034 377.821 396.597C377.064 396.16 376.45 396.515 376.45 397.389C376.45 398.263 377.064 399.327 377.821 399.764ZM372.338 396.6C373.095 397.037 373.709 396.682 373.709 395.808C373.709 394.934 373.095 393.87 372.338 393.433C371.581 392.996 370.967 393.351 370.967 394.225C370.967 395.099 371.581 396.163 372.338 396.6ZM377.821 393.433C378.578 393.872 379.192 393.517 379.19 392.642C379.19 391.768 378.578 390.705 377.819 390.267C377.062 389.83 376.448 390.184 376.448 391.058C376.448 391.934 377.062 392.996 377.821 393.433ZM387.588 382.667C388.345 382.23 388.345 381.52 387.588 381.083C386.832 380.646 385.603 380.646 384.846 381.083C384.088 381.52 384.088 382.23 384.846 382.667C385.603 383.104 386.832 383.104 387.588 382.667ZM379.988 381.083C380.745 381.52 380.745 382.23 379.988 382.667C379.232 383.104 378.003 383.104 377.246 382.667C376.489 382.23 376.489 381.52 377.246 381.083C378.003 380.646 379.232 380.646 379.988 381.083ZM389.325 394.304C390.272 393.756 391.04 392.428 391.04 391.335C391.04 390.243 390.272 389.8 389.327 390.346C388.38 390.892 387.612 392.221 387.612 393.315C387.612 394.407 388.38 394.85 389.325 394.304Z" fill="#182B44"/>
<g filter="url(#filter4_d_164_142)">
<path d="M147 355H312V380C312 382.209 310.209 384 308 384H151C148.791 384 147 382.209 147 380V355Z" fill="#334155"/>
</g>
<g filter="url(#filter5_i_164_142)">
<rect x="206" y="365" width="48.418" height="10" rx="5" fill="url(#paint13_linear_164_142)"/>
</g>
<rect x="206.497" y="365" width="47.4248" height="9.16667" rx="4.58333" fill="url(#paint14_linear_164_142)"/>
<path d="M31.9789 51.7729C32.1023 46.34 36.5419 42 41.9763 42H417.567C423.01 42 427.453 46.3523 427.565 51.7936L432.789 304.794C432.905 310.396 428.395 315 422.791 315H36.2297C30.618 315 26.1049 310.383 26.2323 304.773L31.9789 51.7729Z" fill="url(#paint15_linear_164_142)"/>
<path d="M31.9789 51.7729C32.1023 46.34 36.5419 42 41.9763 42H417.567C423.01 42 427.453 46.3523 427.565 51.7936L432.789 304.794C432.905 310.396 428.395 315 422.791 315H36.2297C30.618 315 26.1049 310.383 26.2323 304.773L31.9789 51.7729Z" fill="url(#paint16_linear_164_142)"/>
<path d="M31.9789 51.7729C32.1023 46.34 36.5419 42 41.9763 42H417.567C423.01 42 427.453 46.3523 427.565 51.7936L432.789 304.794C432.905 310.396 428.395 315 422.791 315H36.2297C30.618 315 26.1049 310.383 26.2323 304.773L31.9789 51.7729Z" fill="url(#paint17_linear_164_142)"/>
<path d="M37.9058 52.8852C37.9682 50.1692 40.1878 48 42.9045 48H416.632C419.353 48 421.575 50.1755 421.631 52.8956L426.893 304.896C426.952 307.697 424.697 310 421.895 310H37.1162C34.3098 310 32.053 307.691 32.1175 304.885L37.9058 52.8852Z" fill="#020617"/>
<defs>
<filter id="filter0_i_164_142" x="22" y="364" width="108" height="54" filterUnits="userSpaceOnUse" color-interpolation-filters="sRGB">
<feFlood flood-opacity="0" result="BackgroundImageFix"/>
<feBlend mode="normal" in="SourceGraphic" in2="BackgroundImageFix" result="shape"/>
<feColorMatrix in="SourceAlpha" type="matrix" values="0 0 0 0 0 0 0 0 0 0 0 0 0 0 0 0 0 0 127 0" result="hardAlpha"/>
<feOffset/>
<feGaussianBlur stdDeviation="2"/>
<feComposite in2="hardAlpha" operator="arithmetic" k2="-1" k3="1"/>
<feColorMatrix type="matrix" values="0 0 0 0 0 0 0 0 0 0 0 0 0 0 0 0 0 0 0.25 0"/>
<feBlend mode="normal" in2="shape" result="effect1_innerShadow_164_142"/>
</filter>
<filter id="filter1_i_164_142" x="24.582" y="366" width="102.836" height="50" filterUnits="userSpaceOnUse" color-interpolation-filters="sRGB">
<feFlood flood-opacity="0" result="BackgroundImageFix"/>
<feBlend mode="normal" in="SourceGraphic" in2="BackgroundImageFix" result="shape"/>
<feColorMatrix in="SourceAlpha" type="matrix" values="0 0 0 0 0 0 0 0 0 0 0 0 0 0 0 0 0 0 127 0" result="hardAlpha"/>
<feOffset dy="4"/>
<feGaussianBlur stdDeviation="1"/>
<feComposite in2="hardAlpha" operator="arithmetic" k2="-1" k3="1"/>
<feColorMatrix type="matrix" values="0 0 0 0 0 0 0 0 0 0 0 0 0 0 0 0 0 0 0.25 0"/>
<feBlend mode="normal" in2="shape" result="effect1_innerShadow_164_142"/>
</filter>
<filter id="filter2_i_164_142" x="329" y="366" width="108" height="54" filterUnits="userSpaceOnUse" color-interpolation-filters="sRGB">
<feFlood flood-opacity="0" result="BackgroundImageFix"/>
<feBlend mode="normal" in="SourceGraphic" in2="BackgroundImageFix" result="shape"/>
<feColorMatrix in="SourceAlpha" type="matrix" values="0 0 0 0 0 0 0 0 0 0 0 0 0 0 0 0 0 0 127 0" result="hardAlpha"/>
<feOffset/>
<feGaussianBlur stdDeviation="2"/>
<feComposite in2="hardAlpha" operator="arithmetic" k2="-1" k3="1"/>
<feColorMatrix type="matrix" values="0 0 0 0 0 0 0 0 0 0 0 0 0 0 0 0 0 0 0.25 0"/>
<feBlend mode="normal" in2="shape" result="effect1_innerShadow_164_142"/>
</filter>
<filter id="filter3_i_164_142" x="331.582" y="368" width="102.836" height="50" filterUnits="userSpaceOnUse" color-interpolation-filters="sRGB">
<feFlood flood-opacity="0" result="BackgroundImageFix"/>
<feBlend mode="normal" in="SourceGraphic" in2="BackgroundImageFix" result="shape"/>
<feColorMatrix in="SourceAlpha" type="matrix" values="0 0 0 0 0 0 0 0 0 0 0 0 0 0 0 0 0 0 127 0" result="hardAlpha"/>
<feOffset dy="4"/>
<feGaussianBlur stdDeviation="1"/>
<feComposite in2="hardAlpha" operator="arithmetic" k2="-1" k3="1"/>
<feColorMatrix type="matrix" values="0 0 0 0 0 0 0 0 0 0 0 0 0 0 0 0 0 0 0.25 0"/>
<feBlend mode="normal" in2="shape" result="effect1_innerShadow_164_142"/>
</filter>
<filter id="filter4_d_164_142" x="146" y="355" width="173" height="37" filterUnits="userSpaceOnUse" color-interpolation-filters="sRGB">
<feFlood flood-opacity="0" result="BackgroundImageFix"/>
<feColorMatrix in="SourceAlpha" type="matrix" values="0 0 0 0 0 0 0 0 0 0 0 0 0 0 0 0 0 0 127 0" result="hardAlpha"/>
<feOffset dx="3" dy="4"/>
<feGaussianBlur stdDeviation="2"/>
<feComposite in2="hardAlpha" operator="out"/>
<feColorMatrix type="matrix" values="0 0 0 0 0.0666667 0 0 0 0 0.0941176 0 0 0 0 0.152941 0 0 0 0.3 0"/>
<feBlend mode="normal" in2="BackgroundImageFix" result="effect1_dropShadow_164_142"/>
<feBlend mode="normal" in="SourceGraphic" in2="effect1_dropShadow_164_142" result="shape"/>
</filter>
<filter id="filter5_i_164_142" x="206" y="365" width="48.418" height="12" filterUnits="userSpaceOnUse" color-interpolation-filters="sRGB">
<feFlood flood-opacity="0" result="BackgroundImageFix"/>
<feBlend mode="normal" in="SourceGraphic" in2="BackgroundImageFix" result="shape"/>
<feColorMatrix in="SourceAlpha" type="matrix" values="0 0 0 0 0 0 0 0 0 0 0 0 0 0 0 0 0 0 127 0" result="hardAlpha"/>
<feOffset dy="4"/>
<feGaussianBlur stdDeviation="1"/>
<feComposite in2="hardAlpha" operator="arithmetic" k2="-1" k3="1"/>
<feColorMatrix type="matrix" values="0 0 0 0 0 0 0 0 0 0 0 0 0 0 0 0 0 0 0.25 0"/>
<feBlend mode="normal" in2="shape" result="effect1_innerShadow_164_142"/>
</filter>
<linearGradient id="paint0_linear_164_142" x1="174.5" y1="392.5" x2="440" y2="384" gradientUnits="userSpaceOnUse">
<stop stop-color="#334155"/>
<stop offset="1" stop-color="#303946"/>
</linearGradient>
<linearGradient id="paint1_linear_164_142" x1="233.5" y1="338.5" x2="230" y2="380.5" gradientUnits="userSpaceOnUse">
<stop stop-color="#1E242C"/>
<stop offset="1" stop-color="#1E242C" stop-opacity="0"/>
</linearGradient>
<linearGradient id="paint2_linear_164_142" x1="205" y1="15.5" x2="188.5" y2="337" gradientUnits="userSpaceOnUse">
<stop stop-color="#2BCCEB"/>
<stop offset="1" stop-color="#3D69DA"/>
</linearGradient>
<linearGradient id="paint3_linear_164_142" x1="457.02" y1="181.5" x2="421.751" y2="181.007" gradientUnits="userSpaceOnUse">
<stop stop-color="#1C2128"/>
<stop offset="1" stop-color="#334155" stop-opacity="0"/>
</linearGradient>
<linearGradient id="paint4_linear_164_142" x1="456.026" y1="170.5" x2="435.659" y2="171.981" gradientUnits="userSpaceOnUse">
<stop stop-color="#1C2128"/>
<stop offset="1" stop-color="#334155" stop-opacity="0"/>
</linearGradient>
<linearGradient id="paint5_linear_164_142" x1="460.497" y1="292" x2="435.163" y2="292" gradientUnits="userSpaceOnUse">
<stop stop-color="#1C2128"/>
<stop offset="1" stop-color="#334155" stop-opacity="0"/>
</linearGradient>
<linearGradient id="paint6_linear_164_142" x1="443.608" y1="42" x2="417.773" y2="44.9614" gradientUnits="userSpaceOnUse">
<stop stop-color="#1C2128"/>
<stop offset="1" stop-color="#334155" stop-opacity="0"/>
</linearGradient>
<linearGradient id="paint7_linear_164_142" x1="422.248" y1="16.5" x2="417.72" y2="44.9908" gradientUnits="userSpaceOnUse">
<stop stop-color="#1C2128"/>
<stop offset="1" stop-color="#334155" stop-opacity="0"/>
</linearGradient>
<linearGradient id="paint8_linear_164_142" x1="38.7712" y1="139.5" x2="268.691" y2="232.943" gradientUnits="userSpaceOnUse">
<stop stop-color="#617DA5"/>
<stop offset="1" stop-color="#222932"/>
</linearGradient>
<linearGradient id="paint9_linear_164_142" x1="75.9999" y1="366" x2="75.9999" y2="414" gradientUnits="userSpaceOnUse">
<stop stop-color="#2ECDED"/>
<stop offset="1" stop-color="#12448B"/>
</linearGradient>
<linearGradient id="paint10_linear_164_142" x1="75.9999" y1="366" x2="75.9999" y2="410" gradientUnits="userSpaceOnUse">
<stop stop-color="#31D0F0"/>
<stop offset="1" stop-color="#376BD1"/>
</linearGradient>
<linearGradient id="paint11_linear_164_142" x1="383" y1="368" x2="383" y2="416" gradientUnits="userSpaceOnUse">
<stop stop-color="#2ECDED"/>
<stop offset="1" stop-color="#12448B"/>
</linearGradient>
<linearGradient id="paint12_linear_164_142" x1="383" y1="368" x2="383" y2="412" gradientUnits="userSpaceOnUse">
<stop stop-color="#31D0F0"/>
<stop offset="1" stop-color="#376BD1"/>
</linearGradient>
<linearGradient id="paint13_linear_164_142" x1="230.209" y1="365" x2="230.209" y2="375" gradientUnits="userSpaceOnUse">
<stop stop-color="#138FBB"/>
<stop offset="1" stop-color="#134A8F"/>
</linearGradient>
<linearGradient id="paint14_linear_164_142" x1="230.209" y1="365" x2="230.209" y2="374.167" gradientUnits="userSpaceOnUse">
<stop stop-color="#32BFEB"/>
<stop offset="1" stop-color="#3775D5"/>
</linearGradient>
<linearGradient id="paint15_linear_164_142" x1="361" y1="300" x2="353.5" y2="250" gradientUnits="userSpaceOnUse">
<stop stop-color="#4D5A6E"/>
<stop offset="1" stop-color="#64748B" stop-opacity="0"/>
</linearGradient>
<linearGradient id="paint16_linear_164_142" x1="433" y1="239.5" x2="332.5" y2="222" gradientUnits="userSpaceOnUse">
<stop stop-color="#4D5A6E"/>
<stop offset="1" stop-color="#64748B" stop-opacity="0"/>
</linearGradient>
<linearGradient id="paint17_linear_164_142" x1="33.5" y1="53" x2="447.5" y2="323" gradientUnits="userSpaceOnUse">
<stop stop-color="#3C526F"/>
<stop offset="1" stop-color="#4E5C70" stop-opacity="0"/>
</linearGradient>
</defs>
</svg>
