<?xml version="1.0" encoding="utf-8"?>
<!-- Generator: Adobe Illustrator 24.1.2, SVG Export Plug-In . SVG Version: 6.00 Build 0)  -->
<svg version="1.1" id="Layer_1" xmlns="http://www.w3.org/2000/svg" xmlns:xlink="http://www.w3.org/1999/xlink" x="0px" y="0px"
	 viewBox="0 0 35.6 37.2" style="enable-background:new 0 0 35.6 37.2;" xml:space="preserve">
<style type="text/css">
	.st0{fill:#5F4B32;}
</style>
<g id="Layer_2_1_" transform="translate(8 -3)">
	<g id="Layer_1_1_">
		<path id="Path_36" class="st0" d="M1.7,11.2h16.2c0,1.4,0,2.5,0,3.6c0,0.1,0.1,0.2,0.1,0.3c1.8,1,3,2.7,3.4,4.7
			c0.6,2.4,0,5-1.5,6.9c-0.5,0.6-1.1,1.1-1.8,1.4c-0.2,0.1-0.3,0.2-0.2,0.4c0,1.1,0,3.5,0,3.6H1.7V11.2z M17.9,17.2V26
			C20.3,24.2,20.6,19.3,17.9,17.2z"/>
	</g>
</g>
</svg>
