<svg xmlns="http://www.w3.org/2000/svg" width="35" height="35" viewBox="0 0 35 35">
  <path id="devto" d="M18.388,22.773a1.524,1.524,0,0,0-.907-.34H16.12V30.6h1.36a1.492,1.492,0,0,0,.907-.34,1.206,1.206,0,0,0,.453-1.02V23.794a1.206,1.206,0,0,0-.453-1.02ZM40.571,9H12.429A3.43,3.43,0,0,0,9,12.422V40.578A3.43,3.43,0,0,0,12.429,44H40.571A3.43,3.43,0,0,0,44,40.578V12.422A3.43,3.43,0,0,0,40.571,9ZM21.045,29.249a3.568,3.568,0,0,1-3.776,3.691H13.641V20.017h3.7a3.564,3.564,0,0,1,3.7,3.691l.007,5.54Zm7.871-6.929H24.75v3h2.544v2.31H24.75v3h4.166v2.31h-4.86A1.576,1.576,0,0,1,22.44,31.41V21.633a1.576,1.576,0,0,1,1.537-1.615h4.938v2.3Zm8.091,9.012c-1.034,2.4-2.877,1.927-3.705,0L30.29,20.017h2.544L35.158,28.9l2.31-8.885h2.544l-3,11.315Z" transform="translate(-9 -9)" fill="#5f4b32"/>
</svg>
