<svg xmlns="http://www.w3.org/2000/svg" width="35" height="35" viewBox="0 0 35 35">
  <path id="logo-linkedin" d="M96.2,64H66.99A2.855,2.855,0,0,0,64,66.726V96a3.08,3.08,0,0,0,2.99,3h29.2A2.923,2.923,0,0,0,99,96V66.726A2.684,2.684,0,0,0,96.2,64ZM74.849,93.174H69.835V77.584h5.014Zm-2.334-17.96h-.036a2.726,2.726,0,1,1,.036,0Zm20.659,17.96H88.16V84.65c0-2.042-.729-3.437-2.544-3.437a2.743,2.743,0,0,0-2.571,1.851,3.376,3.376,0,0,0-.173,1.231v8.88H77.858V77.584h5.014v2.17a5.076,5.076,0,0,1,4.522-2.535c3.291,0,5.78,2.17,5.78,6.847Z" transform="translate(-64 -64)" fill="#5f4b32"/>
</svg>
