<svg xmlns="http://www.w3.org/2000/svg" width="35.283" height="28.711" viewBox="0 0 35.283 28.711">
  <path id="logo-twitter" d="M55.383,67.4a14.634,14.634,0,0,1-4.157,1.144,7.264,7.264,0,0,0,3.185-4.008,14.384,14.384,0,0,1-4.6,1.757,7.237,7.237,0,0,0-12.524,4.95,7.087,7.087,0,0,0,.187,1.652,20.514,20.514,0,0,1-14.924-7.574A7.253,7.253,0,0,0,24.8,75a7.07,7.07,0,0,1-3.29-.9v.09a7.245,7.245,0,0,0,5.809,7.1,7.287,7.287,0,0,1-1.907.254,6.829,6.829,0,0,1-1.361-.135,7.25,7.25,0,0,0,6.766,5.032,14.513,14.513,0,0,1-8.995,3.1,14.673,14.673,0,0,1-1.727-.1,20.234,20.234,0,0,0,11.081,3.275c13.331,0,20.613-11.043,20.613-20.621,0-.314-.007-.628-.022-.935A14.736,14.736,0,0,0,55.383,67.4Z" transform="translate(-20.1 -64)" fill="#5f4b32"/>
</svg>
